<?xml version="1.0" standalone="no"?>
<!DOCTYPE svg PUBLIC "-//W3C//DTD SVG 1.1//EN" "http://www.w3.org/Graphics/SVG/1.1/DTD/svg11.dtd" >
<svg xmlns="http://www.w3.org/2000/svg" xmlns:xlink="http://www.w3.org/1999/xlink" version="1.1">
<metadata>
Created by FontForge 20150828 at Tue Nov 10 18:11:09 2015
 By Luca Raffo
</metadata>
<defs>
<font id="WyMaterialIconsLiga" horiz-adv-x="512" >
  <font-face 
    font-family="WyMaterialIconsLiga"
    font-weight="400"
    font-stretch="normal"
    units-per-em="512"
    panose-1="2 0 5 9 0 0 0 0 0 0"
    ascent="448"
    descent="-64"
    bbox="0 -64 512 448"
    underline-thickness="25"
    underline-position="-76"
    unicode-range="U+002D-F2B0"
  />
<missing-glyph 
d="M17 0v341h136v-341h-136zM34 17h102v307h-102v-307z" />
    <glyph glyph-name="users_manage" unicode="users_manage" 
d="M474 43q22 -17 22 -18q3 -2 1 -7l-21 -37q-2 -4 -7 -2l-26 10q-10 -8 -18 -10l-5 -29q0 -4 -5 -4h-43q-5 0 -5 4l-4 29q-13 6 -18 10l-27 -10q-4 -2 -7 2l-21 37q-2 4 1 7l23 18q-1 3 -1 10q0 2 0.5 5.5t0.5 5.5l-23 18q-3 2 -1 7l21 37q3 4 7 2l27 -11q9 8 18 11l4 28
q0 4 5 4h43q5 0 5 -4l5 -28q12 -6 18 -11l26 11q5 2 7 -2l21 -37q2 -4 -1 -7l-22 -18q1 -3 1 -11q0 -2 -0.5 -5.5t-0.5 -4.5zM395 21q13 0 22.5 9.5t9.5 23t-9.5 22.5t-23 9t-22.5 -9t-9 -22.5t9 -23t23 -9.5zM181.5 192q-35.5 0 -60.5 25t-25 60.5t25 60.5t60.5 25
t60.5 -25t25 -60.5t-25 -60.5t-60.5 -25zM235 53q0 -16 3 -32h-227v43q0 20 18.5 37t45.5 27t55.5 15.5t50.5 5.5q35 0 78 -11q-24 -38 -24 -85z" />
    <glyph glyph-name="users_primary" unicode="users_primary" 
d="M352 171q25 0 56 -7.5t57 -24t26 -38.5v-58h-470v58q0 17 15 30.5t37.5 22t45.5 13t41 4.5q50 0 96 -22q46 22 96 22zM459 75v26q0 10 -35.5 24t-71.5 14q-29 0 -64 -12q11 -13 11 -26v-26h160zM352 192q-31 0 -53 21.5t-22 53t22 53t53 21.5q15 0 29 -5.5t24 -15.5
t16 -24t6 -29q0 -32 -22 -53.5t-53 -21.5zM352 309q-18 0 -30.5 -12.5t-12.5 -30t12.5 -30t30.5 -12.5t30.5 12.5t12.5 30t-12.5 30t-30.5 12.5zM160 192q-31 0 -53 21.5t-22 53t22 53t53 21.5q20 0 37.5 -10t27.5 -27t10 -37q0 -32 -22 -53.5t-53 -21.5z" />
    <glyph glyph-name="users_secondary" unicode="users_secondary" 
d="M21 101q0 17 15 30.5t37.5 22t45.5 13t41 4.5q50 0 96 -22q46 22 96 22q25 0 56 -7.5t57 -24t26 -38.5v-58h-470v58zM53 101v-26h160v26q0 13 11 26q-33 12 -64 12q-36 0 -71.5 -14t-35.5 -24zM235 267q0 -32 -22 -53.5t-53 -21.5t-53 21.5t-22 53t22 53t53 21.5
q20 0 37.5 -10t27.5 -27t10 -37zM203 266.5q0 17.5 -12.5 30t-30.5 12.5t-30.5 -12.5t-12.5 -30t12.5 -30t30.5 -12.5t30.5 12.5t12.5 30zM352 192q-31 0 -53 21.5t-22 53t22 53t53 21.5q15 0 29 -5.5t24 -15.5t16 -24t6 -29q0 -32 -22 -53.5t-53 -21.5z" />
    <glyph glyph-name="access-point" unicode="access&#x2d;point" 
d="M105 343l30 -30q-23 -24 -36 -54.5t-13 -66.5t13 -66.5t36 -54.5l-30 -30q-29 29 -45.5 68t-16.5 83t16.5 83t45.5 68zM407 343q29 -29 45.5 -68t16.5 -83t-16.5 -83t-45.5 -68l-30 30q23 24 36 54.5t13 66.5t-13 66.5t-36 54.5zM166 282l30 -30q-24 -24 -24 -60t24 -60
l-30 -30q-18 17 -28 40t-10 50t10 50t28 40zM346 282q18 -17 28 -40t10 -50t-10 -50t-28 -40l-30 30q24 24 24 60t-24 60zM256 235q18 -1 30 -13t12 -30t-12 -30t-30 -12t-30 12t-12 30t12 30t30 13z" />
    <glyph glyph-name="account-alert" unicode="account&#x2d;alert" 
d="M213 363q37 -1 61 -25t24 -60.5t-24 -60.5t-60.5 -24t-60.5 24t-24 60.5t24 60.5t60 25zM213 149q73 -1 121 -25t50 -60v-43h-341v43q1 36 49.5 60t120.5 25zM427 192v107h42v-107h-42zM427 107v42h42v-42h-42z" />
    <glyph glyph-name="account-box-outline" unicode="account&#x2d;box&#x2d;outline" 
d="M405 43v298h-298v-298h298zM405 384q18 0 30.5 -12t12.5 -31v-298q0 -18 -12.5 -30.5t-30.5 -12.5h-298q-18 0 -30.5 12.5t-12.5 30.5v298q0 18 12.5 30.5t30.5 12.5h298zM352 101v-16h-192v16q3 24 36 36t60 12t60 -12t36 -36zM256 187q-20 0 -33.5 13.5t-13.5 34
t13.5 34t33.5 13.5t33.5 -13.5t13.5 -34t-13.5 -34t-33.5 -13.5z" />
    <glyph glyph-name="account-box" unicode="account&#x2d;box" 
d="M128 85v-21h256v21q-4 32 -48 49t-80 17t-80 -17t-48 -49zM320 256q-1 27 -19 45t-45 18t-45 -18t-18 -45t18 -45t45 -18t45 18t19 45zM64 341q0 18 12 30.5t31 12.5h298q18 0 30.5 -12.5t12.5 -30.5v-298q0 -18 -12.5 -30.5t-30.5 -12.5h-298q-18 0 -30.5 12.5
t-12.5 30.5v298z" />
    <glyph glyph-name="account-check" unicode="account&#x2d;check" 
d="M192 341q32 0 53 -21.5t21 -53t-21 -52.5t-53 -21t-53 21t-21 52.5t21 53t53 21.5zM192 155q64 -1 106 -22t43 -53v-37h-298v37q1 32 43 53t106 22zM363 178l-59 64l25 25l34 -34l76 76l25 -30z" />
    <glyph glyph-name="account-circle" unicode="account&#x2d;circle" 
d="M256 38q40 1 73.5 19.5t54.5 49.5q-4 32 -48 49t-80 17t-80 -17t-48 -49q21 -31 54.5 -49.5t73.5 -19.5zM256 341q-27 0 -45 -18t-18 -45.5t18 -45.5t45 -18t45 18t18 45.5t-18 45.5t-45 18zM256 405q90 -2 150.5 -62t62.5 -151q-2 -91 -62 -151t-151 -62q-91 2 -151 62
t-62 151q2 91 62 151t151 62z" />
    <glyph glyph-name="account-convert" unicode="account&#x2d;convert" 
d="M160 -11l29 29l81 -81l-14 -1q-103 2 -173.5 68t-81.5 167h32q7 -61 40.5 -108.5t86.5 -73.5zM352 395l-29 -29l-81 81l14 1q103 -2 173.5 -68t81.5 -167h-32q-7 61 -40.5 108.5t-86.5 73.5zM128 85q4 32 48 49t80 17t80 -17t48 -49v-21h-256v21zM320 256q-1 -27 -19 -45
t-45 -18t-45 18t-18 45t18 45t45 18t45 -18t19 -45z" />
    <glyph glyph-name="account-key" unicode="account&#x2d;key" 
d="M235 235v-43h-22v-43h-42v43h-47q-7 -19 -23 -30.5t-37 -12.5q-27 1 -45 19t-18 45.5t18 45.5t45 18q21 0 37 -11.5t23 -30.5h111zM64 235q-9 -1 -15 -7t-6 -15t6 -15t15 -6t15 6t6 15t-6 15t-15 7zM341 149q48 0 107 -21t64 -64v-43h-341v43q5 43 63.5 64t106.5 21z
M341 192q-36 1 -60 25t-24 60.5t24 60.5t60.5 24t60.5 -24t24 -60.5t-24 -60.5t-61 -25z" />
    <glyph glyph-name="account-location" unicode="account&#x2d;location" 
d="M384 107v19q-4 32 -48 49t-80 17t-80 -17t-48 -49v-19h256zM256 335q-25 -1 -41 -17t-16 -40.5t16 -41t41 -16.5t41 16.5t16 41t-16 40.5t-41 17zM405 405q18 0 30.5 -12t12.5 -30v-299q0 -18 -12.5 -30t-30.5 -13h-85l-64 -64l-64 64h-85q-18 1 -30.5 13t-12.5 30v299
q0 18 12 30t31 12h298z" />
    <glyph glyph-name="account-minus" unicode="account&#x2d;minus" 
d="M320 149q48 0 106.5 -21t64.5 -64v-43h-342v43q6 43 64.5 64t106.5 21zM21 235h171v-43h-171v43zM320 192q-36 1 -60 25t-24 60.5t24 60.5t60 24t60 -24t24 -60.5t-24 -60.5t-60 -25z" />
    <glyph glyph-name="account-multiple-outline" unicode="account&#x2d;multiple&#x2d;outline" 
d="M352 309q-18 0 -30 -12t-12 -30t12 -30.5t30 -12.5t30 12.5t12 30.5t-12 30t-30 12zM352 192q-32 1 -53 22t-21 52.5t21 53t53 21.5t53 -21.5t21 -53t-21 -52.5t-53 -22zM160 309q-18 0 -30 -12t-12 -30t12 -30.5t30 -12.5t30 12.5t12 30.5t-12 30t-30 12zM160 192
q-32 1 -53 22t-21 52.5t21 53t53 21.5t53 -21.5t21 -53t-21 -52.5t-53 -22zM459 75v26q-2 10 -34 23t-73 15q-17 0 -33.5 -3.5t-30.5 -8.5q10 -11 11 -26v-26h160zM267 75v26q-2 10 -34 23t-73 15q-41 -2 -73 -15t-34 -23v-26h214zM352 171q39 0 86.5 -17.5t52.5 -52.5v-58
h-470v58q5 35 52.5 52.5t86.5 17.5q20 0 46 -5.5t50 -16.5q24 11 50 16.5t46 5.5z" />
    <glyph glyph-name="account-multiple-plus" unicode="account&#x2d;multiple&#x2d;plus" 
d="M277 171q36 0 80 -16t48 -48v-43h-256v43q4 32 48 48t80 16zM419 167q34 -5 62.5 -20.5t30.5 -39.5v-43h-64v43q-1 37 -29 60zM277 213q-27 1 -45 19t-18 45.5t18 45.5t45.5 18t45.5 -18t18 -45.5t-18 -45.5t-46 -19zM384 213q-10 0 -20 4q19 26 19 60.5t-19 60.5
q10 3 20 3q27 0 45 -18t18 -45.5t-18 -45.5t-45 -19zM171 235v-43h-64v-64h-43v64h-64v43h64v64h43v-64h64z" />
    <glyph glyph-name="account-multiple" unicode="account&#x2d;multiple" 
d="M341 171q42 0 93.5 -19t56.5 -56v-53h-128v53q-1 24 -12 42t-30 32q11 1 20 1zM171 171q42 0 93 -19t56 -56v-53h-299v53q5 37 56.5 56t93.5 19zM171 213q-28 1 -46 19t-18 45.5t18 45.5t45.5 18t45.5 -18t18 -45.5t-18 -45.5t-45 -19zM341 213q-27 1 -45 19t-18 45.5
t18 45.5t45.5 18t45.5 -18t18 -45.5t-18 -45.5t-46 -19z" />
    <glyph glyph-name="account-network" unicode="account&#x2d;network" 
d="M277 107v-43h22q9 0 15 -6t6 -15h149v-43h-149q0 -9 -6 -15t-15 -6h-86q-9 0 -15 6t-6 15h-149v43h149q0 9 6 15t15 6h22v43h-128v32q1 31 43 52.5t106 21.5t106 -21.5t43 -52.5v-32h-128zM256 405q32 0 53 -21.5t21 -53t-21 -52.5t-53 -21t-53 21t-21 52.5t21 53
t53 21.5z" />
    <glyph glyph-name="account-outline" unicode="account&#x2d;outline" 
d="M256 171q48 0 106.5 -21.5t64.5 -64.5v-64h-342v64q6 43 64.5 64.5t106.5 21.5zM256 363q36 -1 60 -25t24 -60.5t-24 -60.5t-60 -24t-60 24t-24 60.5t24 60.5t60 25zM256 130q-50 -1 -89 -17t-41 -28v-23h260v23q-2 12 -41 28t-89 17zM256 322q-19 0 -31.5 -13t-12.5 -32
t12.5 -31.5t31.5 -12.5t31.5 12.5t12.5 31.5t-12.5 32t-31.5 13z" />
    <glyph glyph-name="account-plus" unicode="account&#x2d;plus" 
d="M320 149q48 0 106.5 -21t64.5 -64v-43h-342v43q6 43 64.5 64t106.5 21zM128 235h64v-43h-64v-64h-43v64h-64v43h64v64h43v-64zM320 192q-36 1 -60 25t-24 60.5t24 60.5t60 24t60 -24t24 -60.5t-24 -60.5t-60 -25z" />
    <glyph glyph-name="account-remove" unicode="account&#x2d;remove" 
d="M320 149q48 0 106.5 -21t64.5 -64v-43h-342v43q6 43 64.5 64t106.5 21zM320 192q-36 1 -60 25t-24 60.5t24 60.5t60 24t60 -24t24 -60.5t-24 -60.5t-60 -25zM107 243l45 46l30 -30l-45 -46l45 -45l-30 -30l-45 45l-46 -45l-30 30l46 45l-46 46l30 30z" />
    <glyph glyph-name="account-search" unicode="account&#x2d;search" 
d="M320 149q48 0 106.5 -21t64.5 -64v-43h-342v43q6 43 64.5 64t106.5 21zM320 192q-36 1 -60 25t-24 60.5t24 60.5t60 24t60 -24t24 -60.5t-24 -60.5t-60 -25zM59 135q-7 -6 -15.5 -6t-15 6.5t-6.5 15t7 15.5l41 41q-6 13 -6 28q1 27 19 45t45 18t45 -18t18 -45.5
t-18 -45.5t-45 -18q-15 0 -28 6zM128 256q-9 0 -15 -6t-6 -15t6 -15t15 -6t15 6t6 15t-6 15t-15 6z" />
    <glyph glyph-name="account-star-variant" unicode="account&#x2d;star&#x2d;variant" 
d="M192 149q48 0 106.5 -21t64.5 -64v-43h-342v43q6 43 64.5 64t106.5 21zM192 192q-36 1 -60 25t-24 60.5t24 60.5t60 24t60 -24t24 -60.5t-24 -60.5t-60 -25zM405 165l-52 -32l14 60l-47 40l62 5l23 57l24 -57l62 -5l-47 -40l15 -60z" />
    <glyph glyph-name="account-star" unicode="account&#x2d;star" 
d="M320 149q48 0 106.5 -21t64.5 -64v-43h-342v43q6 43 64.5 64t106.5 21zM320 192q-36 1 -60 25t-24 60.5t24 60.5t60 24t60 -24t24 -60.5t-24 -60.5t-60 -25zM107 165l-54 -32l15 60l-47 40l62 5l24 57l23 -57l62 -5l-47 -40l14 -60z" />
    <glyph glyph-name="account-switch" unicode="account&#x2d;switch" 
d="M341 256q42 0 93.5 -18.5t56.5 -56.5v-53h-128v53q-1 24 -12 42.5t-30 31.5zM171 256q42 0 93 -18.5t56 -56.5v-53h-299v53q5 38 56.5 56.5t93.5 18.5zM171 299q-28 0 -46 18t-18 45.5t18 45.5t45.5 18t45.5 -18t18 -45.5t-18 -45.5t-45 -18zM341 299q-27 0 -45 18
t-18 45.5t18 45.5t45.5 18t45.5 -18t18 -45.5t-18 -45.5t-46 -18zM192 91v-48h128v48l69 -70l-69 -69v48h-128v-48l-69 69z" />
    <glyph glyph-name="account" unicode="account" 
d="M256 363q36 -1 60 -25t24 -60.5t-24 -60.5t-60 -24t-60 24t-24 60.5t24 60.5t60 25zM256 149q73 -1 121 -25t50 -60v-43h-342v43q2 36 50 60t121 25z" />
    <glyph glyph-name="alert-box" unicode="alert&#x2d;box" 
d="M107 384h298q18 0 30.5 -12.5t12.5 -30.5v-298q0 -18 -12.5 -30.5t-30.5 -12.5h-298q-18 0 -30.5 12.5t-12.5 30.5v298q0 18 12.5 30.5t30.5 12.5zM277 171v128h-42v-128h42zM277 85v43h-42v-43h42z" />
    <glyph glyph-name="alert-circle" unicode="alert&#x2d;circle" 
d="M277 171v128h-42v-128h42zM277 85v43h-42v-43h42zM256 405q91 -2 151 -62t62 -151q-2 -91 -62 -151t-151 -62q-91 2 -151 62t-62 151q2 91 62 151t151 62z" />
    <glyph glyph-name="alert" unicode="alert" 
d="M277 149v86h-42v-86h42zM277 64v43h-42v-43h42zM21 0l235 405l235 -405h-470z" />
    <glyph glyph-name="apps" unicode="apps" 
d="M341 21v86h86v-86h-86zM341 149v86h86v-86h-86zM213 277v86h86v-86h-86zM341 277v86h86v-86h-86zM213 149v86h86v-86h-86zM85 149v86h86v-86h-86zM85 21v86h86v-86h-86zM213 21v86h86v-86h-86zM85 277v86h86v-86h-86z" />
    <glyph glyph-name="archive" unicode="archive" 
d="M64 384h384v-85h-384v85zM85 277h342v-277h-342v277zM203 213q-10 -1 -11 -10v-32h128v32q-1 9 -11 10h-106z" />
    <glyph glyph-name="arrange-bring-forward" unicode="arrange&#x2d;bring&#x2d;forward" 
d="M43 405h298v-298h-298v298zM469 277v-298h-298v85h42v-43h214v214h-43v42h85z" />
    <glyph glyph-name="arrange-send-backward" unicode="arrange&#x2d;send&#x2d;backward" 
d="M43 405h298v-298h-298v298zM469 277v-298h-298v85h213v213h85zM85 363v-214h214v214h-214z" />
    <glyph glyph-name="arrow-bottom-left" unicode="arrow&#x2d;bottom&#x2d;left" 
d="M405 311l-226 -226h141v-42h-213v213h42v-141l226 226z" />
    <glyph glyph-name="arrow-bottom-right" unicode="arrow&#x2d;bottom&#x2d;right" 
d="M107 311l30 30l226 -226v141h42v-213h-213v42h141z" />
    <glyph glyph-name="arrow-down-bold" unicode="arrow&#x2d;down&#x2d;bold" 
d="M213 363h86v-192l74 74l52 -51l-169 -169l-169 169l52 51l74 -74v192z" />
    <glyph glyph-name="arrow-down" unicode="arrow&#x2d;down" 
d="M235 363h42v-256l118 117l30 -30l-169 -169l-169 169l30 30l118 -117v256z" />
    <glyph glyph-name="arrow-left-bold" unicode="arrow&#x2d;left&#x2d;bold" 
d="M427 235v-86h-192l74 -74l-51 -52l-169 169l169 169l51 -52l-74 -74h192z" />
    <glyph glyph-name="arrow-left" unicode="arrow&#x2d;left" 
d="M427 213v-42h-256l117 -118l-30 -30l-169 169l169 169l30 -30l-117 -118h256z" />
    <glyph glyph-name="arrow-right-bold" unicode="arrow&#x2d;right&#x2d;bold" 
d="M85 235h192l-74 74l51 52l169 -169l-169 -169l-51 52l74 74h-192v86z" />
    <glyph glyph-name="arrow-right" unicode="arrow&#x2d;right" 
d="M85 213h256l-117 118l30 30l169 -169l-169 -169l-30 30l117 118h-256v42z" />
    <glyph glyph-name="arrow-top-left" unicode="arrow&#x2d;top&#x2d;left" 
d="M405 73l-30 -30l-226 226v-141h-42v213h213v-42h-141z" />
    <glyph glyph-name="arrow-top-right" unicode="arrow&#x2d;top&#x2d;right" 
d="M107 73l226 226h-141v42h213v-213h-42v141l-226 -226z" />
    <glyph glyph-name="arrow-up-bold" unicode="arrow&#x2d;up&#x2d;bold" 
d="M299 21h-86v192l-74 -74l-52 51l169 169l169 -169l-52 -51l-74 74v-192z" />
    <glyph glyph-name="arrow-up" unicode="arrow&#x2d;up" 
d="M277 21h-42v256l-118 -117l-30 30l169 169l169 -169l-30 -30l-118 117v-256z" />
    <glyph glyph-name="attachment" unicode="attachment" 
d="M160 64q-50 1 -83 34t-34 83q1 50 34 83t83 35h224q36 -1 60 -25t24 -60.5t-24 -60.5t-60 -25h-181q-23 1 -38 16t-15 37.5t15 37.5t38 16h160v-32h-160q-9 -1 -15 -7t-6 -15t6 -15t15 -6h181q23 1 38 16t15 37.5t-15 37.5t-38 16h-224q-36 -1 -60 -25t-24 -60.5
t24 -60.5t60 -25h203v-32h-203z" />
    <glyph glyph-name="backburger" unicode="backburger" 
d="M107 171l85 -86l-30 -30l-137 137l137 137l30 -30l-85 -86h341v-42h-341zM448 320v-43h-213v43h213zM448 107v-43h-213v43h213z" />
    <glyph glyph-name="backup-restore" unicode="backup&#x2d;restore" 
d="M256 384q82 -2 136 -56t56 -136q-2 -82 -56 -136t-136 -56q-33 0 -63 10.5t-54 29.5l30 30q38 -26 87 -27q64 1 106 43t43 106q-1 64 -43 106t-106 43q-64 -1 -106 -43t-43 -106h64l-86 -85l-85 85h64q2 82 56 136t136 56zM299 192q-1 -18 -13 -30t-30 -12t-30 12t-12 30
t12 30t30 12t30 -12t13 -30z" />
    <glyph glyph-name="basket" unicode="basket" 
d="M117 0q-12 0 -22 6.5t-16 16.5l-56 202l-2 10q1 9 7 15t15 6h97l99 140q6 9 17 9t18 -9l98 -140h97q9 0 15 -6t7 -15l-1 -7l-57 -205q-6 -10 -16 -16.5t-22 -6.5h-278zM256 347l-64 -91h128zM256 171q-18 -1 -30 -13t-12 -30t12 -30t30 -12t30 12t12 30t-12 30t-30 13z
" />
    <glyph glyph-name="bell-off" unicode="bell&#x2d;off" 
d="M299 21q-1 -18 -13 -30t-30 -12t-30 12t-13 30h86zM421 -12l-55 55h-302l64 64v128q0 21 6 40l-60 60l30 30l347 -347zM235 361v23q0 9 6 15t15 6t15 -6t6 -15v-23q47 -9 76.5 -43.5t30.5 -82.5v-89l-197 197q22 14 48 18z" />
    <glyph glyph-name="bell-outline" unicode="bell&#x2d;outline" 
d="M341 85v139q-1 41 -28 68t-68 27t-68 -27t-28 -68v-139h192zM384 107l43 -43v-21h-363v21l43 43v117q1 50 30 86.5t76 48.5v14q1 14 10 23t22.5 9t22.5 -9t9 -23v-14q47 -12 76.5 -48.5t30.5 -86.5v-117zM245 -21q-18 0 -30 12t-12 30h85q0 -18 -12.5 -30t-30.5 -12z" />
    <glyph glyph-name="bell-ring-outline" unicode="bell&#x2d;ring&#x2d;outline" 
d="M341 85v139q-1 41 -28 68t-68 27t-68 -27t-28 -68v-139h192zM384 107l43 -43v-21h-363v21l43 43v117q1 50 30 86.5t76 48.5v14q1 14 10 23t22.5 9t22.5 -9t9 -23v-14q47 -12 76.5 -48.5t30.5 -86.5v-117zM245 -21q-18 0 -30 12t-12 30h85q0 -18 -12.5 -30t-30.5 -12z
M426 235q-3 42 -23 77.5t-53 59.5l31 30q38 -29 61.5 -72.5t26.5 -94.5h-43zM140 372q-33 -24 -53 -59.5t-23 -77.5h-43q4 51 27 94.5t62 72.5z" />
    <glyph glyph-name="bell-ring" unicode="bell&#x2d;ring" 
d="M245 -21q-18 0 -30 12t-12 30h85q0 -8 -3 -16q-9 -20 -31 -25q-4 -2 -9 -1zM384 224v-117l43 -43v-21h-363v21l43 43v117q1 50 30 86.5t76 48.5v14q1 14 10 23t22.5 9t22.5 -9t9 -23v-14q47 -12 76.5 -48.5t30.5 -86.5zM426 235q-3 42 -23 77.5t-53 59.5l31 30
q38 -29 61.5 -72.5t26.5 -94.5h-43zM140 372q-33 -24 -53 -59.5t-23 -77.5h-43q4 51 27 94.5t62 72.5z" />
    <glyph glyph-name="bell-sleep" unicode="bell&#x2d;sleep" 
d="M299 239v38h-107v-38h60l-60 -73v-38h107v38h-60zM384 107l43 -43v-21h-363v21l43 43v117q1 50 30 86.5t76 48.5v14q1 14 10 23t22.5 9t22.5 -9t9 -23v-14q47 -12 76.5 -48.5t30.5 -86.5v-117zM245 -21q-18 0 -30 12t-12 30h85q0 -18 -12.5 -30t-30.5 -12z" />
    <glyph glyph-name="bell" unicode="bell" 
d="M299 21q-1 -18 -13 -30t-30 -12t-30 12t-13 30h86zM256 405q9 0 15 -6t6 -15v-23q47 -9 76.5 -43.5t30.5 -82.5v-128l64 -64h-384l64 64v128q1 48 30.5 82.5t76.5 43.5v23q0 9 6 15t15 6z" />
    <glyph glyph-name="block-helper" unicode="block&#x2d;helper" 
d="M256 448q109 -3 181 -75t75 -181q-3 -109 -75 -181t-181 -75q-109 3 -181 75t-75 181q3 109 75 181t181 75zM256 405q-91 -2 -151 -62t-62 -151q0 -39 12.5 -73t35.5 -62l300 300q-28 23 -62 35.5t-73 12.5zM256 -21q91 2 151 62t62 151q0 39 -12.5 73t-35.5 62
l-300 -300q28 -23 62 -35.5t73 -12.5z" />
    <glyph glyph-name="bluetooth" unicode="bluetooth" 
d="M317 100l-40 41v-81zM277 324v-80l40 40zM378 284l-92 -92l92 -92l-122 -121h-21v162l-98 -98l-30 30l119 119l-119 119l30 30l98 -97v161h21z" />
    <glyph glyph-name="bookmark-check" unicode="bookmark&#x2d;check" 
d="M363 384q18 0 30 -12.5t12 -30.5v-341l-149 64l-149 -64v341q0 19 12 31t30 12h214zM235 149l133 133l-30 31l-103 -104l-56 56l-30 -30z" />
    <glyph glyph-name="bookmark-outline-plus" unicode="bookmark&#x2d;outline&#x2d;plus" 
d="M363 64v277h-214v-277l107 47zM363 384q18 0 30 -12.5t12 -30.5v-341l-149 64l-149 -64v341q0 19 12 31t30 12h214zM235 299h42v-43h43v-43h-43v-42h-42v42h-43v43h43v43z" />
    <glyph glyph-name="bookmark-outline" unicode="bookmark&#x2d;outline" 
d="M363 64v277h-214v-277l107 47zM363 384q18 0 30 -12t12 -31v-341l-149 64l-149 -64v341q0 18 12 30.5t30 12.5h214z" />
    <glyph glyph-name="bookmark-plus" unicode="bookmark&#x2d;plus" 
d="M363 384q18 0 30 -12.5t12 -30.5v-341l-149 64l-149 -64v341q0 19 12 31t30 12h214zM235 299v-43h-43v-43h43v-42h42v42h43v43h-43v43h-42z" />
    <glyph glyph-name="bookmark-remove" unicode="bookmark&#x2d;remove" 
d="M363 384q18 0 30 -12.5t12 -30.5v-341l-149 64l-149 -64v341q0 19 12 31t30 12h214zM174 265l52 -52l-52 -51l31 -30l51 51l51 -51l31 30l-52 51l52 52l-31 30l-51 -51l-51 51z" />
    <glyph glyph-name="bookmark" unicode="bookmark" 
d="M363 384q18 0 30 -12t12 -31v-341l-149 64l-149 -64v341q0 18 12 30.5t30 12.5h214z" />
    <glyph glyph-name="briefcase-check" unicode="briefcase&#x2d;check" 
d="M224 75l141 140l-30 30l-111 -110l-45 44l-30 -30zM213 363v-43h86v43h-86zM427 320q18 0 30 -12t12 -31v-234q0 -19 -12 -31t-30 -12h-342q-18 0 -30 12t-12 31v234q0 19 12 31t30 12h86v43l42 42h86l42 -42v-43h86z" />
    <glyph glyph-name="briefcase" unicode="briefcase" 
d="M299 320v43h-86v-43h86zM427 320q18 0 30 -12t12 -31v-234q0 -18 -12 -30.5t-30 -12.5h-342q-18 0 -30 12.5t-12 30.5v234q0 19 12 31t30 12h86v43l42 42h86l42 -42v-43h86z" />
    <glyph glyph-name="bug" unicode="bug" 
d="M299 192v43h-86v-43h86zM299 107v42h-86v-42h86zM427 277v-42h-45q2 -11 2 -22v-21h43v-43h-43v-21q0 -11 -2 -21h45v-43h-60q-17 -29 -46 -46.5t-65 -17.5t-65 17.5t-46 46.5h-60v43h45q-2 10 -2 21v21h-43v43h43v21q0 11 2 22h-45v42h60q15 26 39 42l-35 35l30 30
l47 -46q14 3 30 3t30 -3l47 46l30 -30l-35 -35q24 -16 39 -42h60z" />
    <glyph glyph-name="bullhorn" unicode="bullhorn" 
d="M341 192v-85q0 -9 -6 -15t-15 -7q-2 0 -6.5 1.5t-13.5 9.5l-26 21q-15 13 -32 21t-33 10t-33 1l26 -70l1 -4q-1 -10 -11 -11h-43q-7 0 -10 7l-28 78h-4q-9 1 -15 7t-7 15q-18 0 -30 12t-12 30t12 30.5t30 12.5q1 9 7 15t15 6h64q17 0 35 1.5t35.5 10t32.5 20.5l26 22
q9 7 13.5 9t6.5 1q9 0 15 -6t6 -15v-85q9 -1 15 -7t6 -15t-6 -15t-15 -6zM448 213q0 -22 -8.5 -41t-22.5 -34l-30 30q18 18 18 45.5t-18 45.5l30 30q14 -15 22.5 -34t8.5 -42z" />
    <glyph glyph-name="calendar-blank" unicode="calendar&#x2d;blank" 
d="M405 43v234h-298v-234h298zM341 427h43v-43h21q18 0 30.5 -12t12.5 -31v-298q0 -18 -12.5 -30.5t-30.5 -12.5h-298q-18 0 -30.5 12.5t-12.5 30.5v298q0 19 12 31t31 12h21v43h43v-43h170v43z" />
    <glyph glyph-name="calendar-check" unicode="calendar&#x2d;check" 
d="M405 43v234h-298v-234h298zM405 384q18 0 30.5 -12.5t12.5 -30.5v-298q0 -18 -12.5 -30.5t-30.5 -12.5h-298q-18 0 -30.5 12.5t-12.5 30.5v298q0 18 12 30.5t31 12.5h21v43h43v-43h170v43h43v-43h21zM353 212l-127 -127l-68 68l23 23l45 -45l104 104z" />
    <glyph glyph-name="calendar-clock" unicode="calendar&#x2d;clock" 
d="M320 171h32v-60l52 -31l-16 -27l-68 39v79zM405 277h-298v-234h99q-14 29 -14 64q2 63 44 105t105 44q35 0 64 -14v35zM107 0q-19 0 -31 12.5t-12 30.5v298q0 19 12 31t31 12h21v43h43v-43h170v43h43v-43h21q18 0 30.5 -12.5t12.5 -30.5v-130q20 -20 31 -47t12 -57
q-2 -64 -44 -106t-106 -44q-30 1 -57 12t-47 31h-130zM341 210q-44 -1 -73 -30t-30 -73q1 -44 30 -73.5t73 -30.5q44 1 73.5 30.5t30.5 73.5q-1 44 -30.5 73t-73.5 30z" />
    <glyph glyph-name="calendar-multiple-check" unicode="calendar&#x2d;multiple&#x2d;check" 
d="M448 85v192h-299v-192h299zM448 384q18 0 30 -12.5t13 -30.5v-256q-1 -18 -13 -30t-30 -12h-299q-18 0 -30 12t-12 30v256q0 18 12 30.5t30 12.5h22v43h42v-43h171v43h43v-43h21zM374 212l-95 -95l-57 58l23 22l34 -34l72 72zM64 0h299v-43h-299q-18 1 -30 13t-13 30v256
h43v-256z" />
    <glyph glyph-name="calendar-multiple" unicode="calendar&#x2d;multiple" 
d="M448 85v192h-299v-192h299zM448 384q18 0 30 -12.5t13 -30.5v-256q-1 -18 -13 -30t-30 -12h-299q-18 0 -30 12t-12 30v256q0 18 12 30.5t30 12.5h22v43h42v-43h171v43h43v-43h21zM64 0h299v-43h-299q-18 1 -30 13t-13 30v256h43v-256zM405 128h-85v85h85v-85z" />
    <glyph glyph-name="calendar-plus" unicode="calendar&#x2d;plus" 
d="M405 43v256h-298v-256h298zM341 427h43v-43h21q18 0 30.5 -12.5t12.5 -30.5v-298q0 -18 -12.5 -30.5t-30.5 -12.5h-298q-19 0 -31 12.5t-12 30.5v298q0 19 12 31t31 12h21v43h43v-43h170v43zM235 256h42v-64h64v-43h-64v-64h-42v64h-64v43h64v64z" />
    <glyph glyph-name="calendar-remove" unicode="calendar&#x2d;remove" 
d="M405 43v234h-298v-234h298zM405 384q18 0 30.5 -12.5t12.5 -30.5v-298q0 -18 -12.5 -30.5t-30.5 -12.5h-298q-18 0 -30.5 12.5t-12.5 30.5v298q0 18 12 30.5t31 12.5h21v43h43v-43h170v43h43v-43h21zM199 85l-23 23l52 52l-52 52l23 23l52 -52l52 52l22 -23l-52 -52
l52 -52l-22 -23l-52 52z" />
    <glyph glyph-name="calendar-text" unicode="calendar&#x2d;text" 
d="M299 149v-42h-150v42h150zM405 43v234h-298v-234h298zM405 384q18 0 30.5 -12.5t12.5 -30.5v-298q0 -18 -12.5 -30.5t-30.5 -12.5h-298q-18 0 -30.5 12.5t-12.5 30.5v298q0 18 12 30.5t31 12.5h21v43h43v-43h170v43h43v-43h21zM363 235v-43h-214v43h214z" />
    <glyph glyph-name="calendar-today" unicode="calendar&#x2d;today" 
d="M149 235h107v-107h-107v107zM405 43v234h-298v-234h298zM405 384q18 0 30.5 -12.5t12.5 -30.5v-298q0 -18 -12.5 -30.5t-30.5 -12.5h-298q-18 0 -30.5 12.5t-12.5 30.5v298q0 18 12 30.5t31 12.5h21v43h43v-43h170v43h43v-43h21z" />
    <glyph glyph-name="calendar" unicode="calendar" 
d="M405 43v234h-298v-234h298zM341 427h43v-43h21q18 0 30.5 -12t12.5 -31v-298q0 -18 -12.5 -30.5t-30.5 -12.5h-298q-18 0 -30.5 12.5t-12.5 30.5v298q0 19 12 31t31 12h21v43h43v-43h170v43zM363 192v-107h-107v107h107z" />
    <glyph glyph-name="camcorder-off" unicode="camcorder&#x2d;off" 
d="M70 405l378 -378l-27 -27l-68 68q-5 -4 -12 -4h-256q-9 0 -15 6t-6 15v214q0 9 6 15t15 6h16l-58 58zM448 309v-228l-239 239h132q9 0 15 -6t7 -15v-75z" />
    <glyph glyph-name="camcorder" unicode="camcorder" 
d="M363 224l85 85v-234l-85 85v-75q-1 -9 -7 -15t-15 -6h-256q-9 0 -15 6t-6 15v214q0 9 6 15t15 6h256q9 0 15 -6t7 -15v-75z" />
    <glyph glyph-name="camera-iris" unicode="camera&#x2d;iris" 
d="M293 128l20 34l78 -135q-28 -23 -62 -35.5t-73 -12.5q-24 0 -46 5zM52 128h207l-79 -135q-46 17 -79 52.5t-49 82.5zM182 192l25 -43h-160q-4 21 -4 43q0 42 15 79t41 65zM465 235q4 -21 4 -43q0 -42 -15 -78.5t-41 -65.5l-108 187h160zM460 256h-207l79 135
q46 -17 79 -52.5t49 -82.5zM201 224l-2 -2l-78 135q28 23 62 35.5t73 12.5q24 0 46 -5z" />
    <glyph glyph-name="camera-switch" unicode="camera&#x2d;switch" 
d="M320 117l75 75l-75 75v-54h-128v54l-75 -75l75 -75v54h128v-54zM427 363q18 -1 30 -13t12 -30v-256q0 -18 -12 -30t-30 -13h-342q-18 1 -30 13t-12 30v256q0 18 12 30t30 13h68l39 42h128l39 -42h68z" />
    <glyph glyph-name="camera-timer" unicode="camera&#x2d;timer" 
d="M105 313q-6 6 -6 14.5t6.5 15t15 6.5t14.5 -6l151 -121q13 -13 13 -30t-13 -30t-30 -13t-30 13zM256 21q73 2 121 50t50 121q-1 36 -14 66.5t-36 54.5l30 30q29 -29 45.5 -68t16.5 -83q-2 -91 -62 -151t-151 -62q-91 2 -151 62t-62 151h42q2 -73 50 -121t121 -50z
M256 427q18 -1 30 -13t12 -30t-12 -30t-30 -12t-30 12t-12 30t12 30t30 13z" />
    <glyph glyph-name="camera" unicode="camera" 
d="M85 363h64l43 42h128l43 -42h64q18 -1 30 -13t12 -30v-256q0 -18 -12 -30t-30 -13h-342q-18 1 -30 13t-12 30v256q0 18 12 30t30 13zM256 299q-45 -1 -75.5 -31.5t-31.5 -75.5q1 -45 31.5 -75.5t75.5 -31.5q45 1 75.5 31.5t31.5 75.5q-1 45 -31.5 75.5t-75.5 31.5z
M256 256q27 -1 45 -19t18 -45t-18 -45t-45 -18t-45 18t-18 45t18 45t45 19z" />
    <glyph glyph-name="cart-outline" unicode="cart&#x2d;outline" 
d="M363 64q18 0 30 -12.5t12 -30.5t-12 -30t-30.5 -12t-30.5 12t-12 30.5t12 30.5t31 12zM21 405h70l20 -42h316q9 -1 15 -7t6 -15q0 -5 -3 -10l-76 -138q-6 -10 -15.5 -16t-21.5 -6h-159l-19 -35l-1 -3q0 -5 5 -5h247v-43h-256q-18 1 -30 13t-12 30q0 11 5 20l29 53
l-77 162h-43v42zM149 64q18 0 30.5 -12.5t12.5 -30.5t-12.5 -30t-30.5 -12t-30 12t-12 30.5t12 30.5t30 12zM341 213l60 107h-270l50 -107h160z" />
    <glyph glyph-name="cart" unicode="cart" 
d="M363 64q18 0 30 -12t12 -30.5t-12 -30.5t-30 -12t-30.5 12t-12.5 30.5t12 30.5t31 12zM21 405h70l20 -42h316q9 -1 15 -7t6 -15q0 -5 -3 -10l-76 -138q-6 -10 -15.5 -16t-21.5 -6h-159l-19 -35q-1 -1 -1 -3q0 -5 5 -5h247v-43h-256q-18 1 -30 13t-12 30q0 11 5 20l29 53
l-77 162h-43v42zM149 64q18 0 30.5 -12t12.5 -30.5t-12.5 -30.5t-30.5 -12t-30 12t-12 30.5t12 30.5t30 12z" />
    <glyph glyph-name="cellphone-link-off" unicode="cellphone&#x2d;link&#x2d;off" 
d="M491 277q9 0 15 -6t6 -15v-213q0 -9 -6 -15t-15 -7h-4l-64 64h46v150h-85v-111l-43 43v89q1 9 7 15t15 6h128zM85 314v-229h229zM41 413l414 -415l-27 -27l-50 50h-378v64h43v235q0 16 10 27l-39 39zM469 320h-281l-43 43h324v-43z" />
    <glyph glyph-name="cellphone-link" unicode="cellphone&#x2d;link" 
d="M469 85v150h-85v-150h85zM491 277q9 0 15 -6t6 -15v-213q0 -9 -6 -15t-15 -7h-128q-9 1 -15 7t-7 15v213q1 9 7 15t15 6h128zM85 320v-235h214v-64h-299v64h43v235q0 18 12 30t30 13h384v-43h-384z" />
    <glyph glyph-name="cellphone" unicode="cellphone" 
d="M363 43v298h-214v-298h214zM363 427q18 -1 30 -13t12 -30v-384q0 -18 -12 -30t-30 -13h-214q-18 1 -30 13t-12 30v384q0 18 12 30t30 13h214z" />
    <glyph glyph-name="certificate" unicode="certificate" 
d="M85 384h342q18 0 30 -12.5t12 -30.5v-213q0 -18 -12 -30t-30 -13h-43v-106l-64 64l-64 -64v106h-171q-18 1 -30 13t-12 30v213q0 19 12 31t30 12zM256 341v-74l-64 -32l64 -32v-75l64 43l64 -43v75l64 32l-64 32v74l-64 -42zM85 341v-42h107v42h-107zM85 256v-43h64v43
h-64zM85 171v-43h107v43h-107z" />
    <glyph glyph-name="chart-arc" unicode="chart&#x2d;arc" 
d="M345 30l-43 74q16 12 26 29t13 38h86q-3 -45 -25 -81.5t-57 -59.5zM277 298v86q71 -6 118 -53t53 -118h-86q-4 34 -27.5 57.5t-57.5 27.5zM149 181q0 -20 8 -38l-74 -43q-19 37 -19 81q2 75 50 125.5t121 56.5v-86q-37 -5 -61 -31.5t-25 -64.5zM245 0q-48 0 -87 22
t-64 59l74 43q13 -18 33 -28t44 -11q21 0 39 8l43 -74q-38 -19 -82 -19z" />
    <glyph glyph-name="chart-areaspline" unicode="chart&#x2d;areaspline" 
d="M372 124l97 168v-292h-426v384h42v-268l118 204l138 -81l91 157l37 -22l-112 -193l-139 80l-126 -218h48l94 161z" />
    <glyph glyph-name="chart-bar" unicode="chart&#x2d;bar" 
d="M469 0h-426v384h42v-341h43v192h85v-192h43v277h85v-277h43v106h85v-149z" />
    <glyph glyph-name="chart-histogram" unicode="chart&#x2d;histogram" 
d="M64 384h43v-213h85v128h85v-86h86v-85h85v-128h-384v384z" />
    <glyph glyph-name="chart-line" unicode="chart&#x2d;line" 
d="M341 197l91 156l37 -21l-112 -193l-139 80l-102 -176h353v-43h-426v384h42v-310l118 203z" />
    <glyph glyph-name="chart-pie" unicode="chart&#x2d;pie" 
d="M448 213h-171v171q73 -2 121 -50t50 -121zM405 171q0 -45 -20.5 -82t-55.5 -61l-82 143h158zM235 0q-45 0 -82 20.5t-61 55.5l139 80l80 -138q-35 -18 -76 -18zM64 171q2 72 50 120.5t121 49.5v-158l-153 -88q-18 34 -18 76z" />
    <glyph glyph-name="check-all" unicode="check&#x2d;all" 
d="M9 162l30 30l119 -119l-30 -30zM474 329l31 -30l-256 -256l-120 119l31 30l89 -89zM384 299l-135 -136l-31 30l136 136z" />
    <glyph glyph-name="check" unicode="check" 
d="M448 299l-256 -256l-117 117l30 30l87 -87l226 226z" />
    <glyph glyph-name="checkbox-blank-circle-outline" unicode="checkbox&#x2d;blank&#x2d;circle&#x2d;outline" 
d="M256 21q73 2 121 50t50 121q-2 73 -50 121t-121 50q-73 -2 -121 -50t-50 -121q2 -73 50 -121t121 -50zM256 405q91 -2 151 -62t62 -151q-2 -91 -62 -151t-151 -62q-91 2 -151 62t-62 151q2 91 62 151t151 62z" />
    <glyph glyph-name="checkbox-blank-circle" unicode="checkbox&#x2d;blank&#x2d;circle" 
d="M256 405q91 -2 151 -62t62 -151q-2 -91 -62 -151t-151 -62q-91 2 -151 62t-62 151q2 91 62 151t151 62z" />
    <glyph glyph-name="checkbox-blank-outline" unicode="checkbox&#x2d;blank&#x2d;outline" 
d="M405 384q18 0 30.5 -12t12.5 -31v-298q0 -18 -12.5 -30.5t-30.5 -12.5h-298q-18 0 -30.5 12.5t-12.5 30.5v298q0 19 12 31t31 12h298zM405 341h-298v-298h298v298z" />
    <glyph glyph-name="checkbox-blank" unicode="checkbox&#x2d;blank" 
d="M405 384q18 0 30.5 -12t12.5 -31v-298q0 -18 -12.5 -30.5t-30.5 -12.5h-298q-18 0 -30.5 12.5t-12.5 30.5v298q0 19 12 31t31 12h298z" />
    <glyph glyph-name="checkbox-marked-circle-outline" unicode="checkbox&#x2d;marked&#x2d;circle&#x2d;outline" 
d="M427 192h42q-2 -91 -62 -151t-151 -62q-91 2 -151 62t-62 151q2 91 62 151t151 62q43 0 80 -15l-33 -34q-23 7 -47 7q-73 -2 -121 -50t-50 -121q2 -73 50 -121t121 -50q73 2 121 50t50 121zM169 233l66 -66l183 183l30 -30l-213 -213l-96 96z" />
    <glyph glyph-name="checkbox-marked-circle" unicode="checkbox&#x2d;marked&#x2d;circle" 
d="M213 85l192 192l-30 31l-162 -162l-76 76l-30 -30zM256 405q91 -2 151 -62t62 -151q-2 -91 -62 -151t-151 -62q-91 2 -151 62t-62 151q2 91 62 151t151 62z" />
    <glyph glyph-name="checkbox-marked-outline" unicode="checkbox&#x2d;marked&#x2d;outline" 
d="M405 43v170h43v-170q0 -18 -12.5 -30.5t-30.5 -12.5h-298q-18 0 -30.5 12.5t-12.5 30.5v298q0 19 12 31t31 12h213v-43h-213v-298h298zM169 233l66 -66l183 183l30 -30l-213 -213l-96 96z" />
    <glyph glyph-name="checkbox-marked" unicode="checkbox&#x2d;marked" 
d="M213 85l192 192l-30 31l-162 -162l-76 76l-30 -30zM405 384q18 0 30.5 -12t12.5 -31v-298q0 -18 -12.5 -30.5t-30.5 -12.5h-298q-18 0 -30.5 12.5t-12.5 30.5v298q0 19 12 31t31 12h298z" />
    <glyph glyph-name="checkbox-multiple-blank-outline" unicode="checkbox&#x2d;multiple&#x2d;blank&#x2d;outline" 
d="M427 107v256h-256v-256h256zM469 107q0 -18 -12 -30.5t-30 -12.5h-256q-19 0 -31 12.5t-12 30.5v256q0 18 12 30t31 12h256q18 0 30 -12t12 -30v-256zM341 21v-42h-256q-18 0 -30 12t-12 30v278h42v-278h256z" />
    <glyph glyph-name="checkbox-multiple-blank" unicode="checkbox&#x2d;multiple&#x2d;blank" 
d="M469 107q0 -18 -12 -30.5t-30 -12.5h-256q-19 0 -31 12.5t-12 30.5v256q0 18 12 30t31 12h256q18 0 30 -12t12 -30v-256zM341 21v-42h-256q-18 0 -30 12t-12 30v278h42v-278h256z" />
    <glyph glyph-name="checkbox-multiple-marked-outline" unicode="checkbox&#x2d;multiple&#x2d;marked&#x2d;outline" 
d="M427 107v128h42v-128q0 -18 -12 -30.5t-30 -12.5h-256q-19 0 -31 12.5t-12 30.5v256q0 18 12 30t31 12h170v-42h-170v-256h256zM233 297l66 -66l140 141l30 -31l-170 -170l-96 96zM341 21v-42h-256q-18 0 -30 12t-12 30v278h42v-278h256z" />
    <glyph glyph-name="checkbox-multiple-marked" unicode="checkbox&#x2d;multiple&#x2d;marked" 
d="M469 107q0 -18 -12 -30.5t-30 -12.5h-256q-19 0 -31 12.5t-12 30.5v256q0 18 12 30t31 12h256q18 0 30 -12t12 -30v-256zM341 21v-42h-256q-18 0 -30 12t-12 30v278h42v-278h256zM277 149l150 150l-30 30l-120 -119l-66 65l-30 -30z" />
    <glyph glyph-name="chevron-double-down" unicode="chevron&#x2d;double&#x2d;down" 
d="M354 329l30 -30l-128 -128l-128 128l30 30l98 -98zM354 201l30 -30l-128 -128l-128 128l30 30l98 -98z" />
    <glyph glyph-name="chevron-double-left" unicode="chevron&#x2d;double&#x2d;left" 
d="M393 290l-98 -98l98 -98l-30 -30l-128 128l128 128zM265 290l-98 -98l98 -98l-30 -30l-128 128l128 128z" />
    <glyph glyph-name="chevron-double-right" unicode="chevron&#x2d;double&#x2d;right" 
d="M119 290l30 30l128 -128l-128 -128l-30 30l98 98zM247 290l30 30l128 -128l-128 -128l-30 30l98 98z" />
    <glyph glyph-name="chevron-double-up" unicode="chevron&#x2d;double&#x2d;up" 
d="M158 55l-30 30l128 128l128 -128l-30 -30l-98 98zM158 183l-30 30l128 128l128 -128l-30 -30l-98 98z" />
    <glyph glyph-name="chevron-down" unicode="chevron&#x2d;down" 
d="M158 265l98 -98l98 98l30 -30l-128 -128l-128 128z" />
    <glyph glyph-name="chevron-left" unicode="chevron&#x2d;left" 
d="M329 94l-30 -30l-128 128l128 128l30 -30l-98 -98z" />
    <glyph glyph-name="chevron-right" unicode="chevron&#x2d;right" 
d="M183 94l98 98l-98 98l30 30l128 -128l-128 -128z" />
    <glyph glyph-name="chevron-up" unicode="chevron&#x2d;up" 
d="M158 119l-30 30l128 128l128 -128l-30 -30l-98 98z" />
    <glyph glyph-name="clock-fast" unicode="clock&#x2d;fast" 
d="M320 363q73 -2 121 -50t50 -121q-2 -73 -50 -121t-121 -50q-73 2 -121 50t-50 121q2 73 50 121t121 50zM320 320q-54 -1 -90.5 -37.5t-37.5 -90.5q1 -54 37.5 -90.5t90.5 -37.5q54 1 90.5 37.5t37.5 90.5q-1 54 -37.5 90.5t-90.5 37.5zM299 277h32v-80l49 -50l-22 -23
l-59 59v94zM43 64q-9 0 -15 6t-6 15t6 15t15 7h81q10 -23 25 -43h-106zM64 171q-9 0 -15 6t-6 15t6 15t15 6h44l-1 -21l1 -21h-44zM85 277q-9 1 -15 7t-6 15t6 15t15 6h64q-15 -20 -25 -43h-39z" />
    <glyph glyph-name="clock" unicode="clock" 
d="M256 21q73 2 121 50t50 121q-2 73 -50 121t-121 50q-73 -2 -121 -50t-50 -121q2 -73 50 -121t121 -50zM256 405q91 -2 151 -62t62 -151q-2 -91 -62 -151t-151 -62q-91 2 -151 62.5t-62 150.5q2 91 62 151t151 62zM267 299v-112l96 -57l-16 -27l-112 68v128h32z" />
    <glyph glyph-name="close-box-outline" unicode="close&#x2d;box&#x2d;outline" 
d="M405 384q18 0 30.5 -12.5t12.5 -30.5v-298q0 -18 -12.5 -30.5t-30.5 -12.5h-298q-18 0 -30.5 12.5t-12.5 30.5v298q0 18 12.5 30.5t30.5 12.5h298zM405 43v298h-298v-298h298zM363 269l-77 -77l77 -77l-30 -30l-77 77l-77 -77l-30 30l77 77l-77 77l30 30l77 -77l77 77z
" />
    <glyph glyph-name="close-box" unicode="close&#x2d;box" 
d="M405 384q18 0 30.5 -12.5t12.5 -30.5v-298q0 -18 -12.5 -30.5t-30.5 -12.5h-298q-18 0 -30.5 12.5t-12.5 30.5v298q0 18 12.5 30.5t30.5 12.5h298zM333 85l30 30l-77 77l77 77l-30 30l-77 -77l-77 77l-30 -30l77 -77l-77 -77l30 -30l77 77z" />
    <glyph glyph-name="close-circle-outline" unicode="close&#x2d;circle&#x2d;outline" 
d="M256 21q72 2 120.5 50.5t50.5 120.5q-2 72 -50.5 120.5t-120.5 50.5q-72 -2 -120.5 -50.5t-50.5 -120.5q2 -72 50.5 -120.5t120.5 -50.5zM256 405q91 -2 151 -62t62 -151q-2 -91 -62 -151t-151 -62q-91 2 -151 62t-62 151q2 91 62 151t151 62zM311 277l30 -30l-55 -55
l55 -55l-30 -30l-55 55l-55 -55l-30 30l55 55l-55 55l30 30l55 -55z" />
    <glyph glyph-name="close-circle" unicode="close&#x2d;circle" 
d="M256 405q91 -2 151 -62t62 -151q-2 -91 -62 -151t-151 -62q-91 2 -151 62t-62 151q2 91 62 151t151 62zM333 299l-77 -77l-77 77l-30 -30l77 -77l-77 -77l30 -30l77 77l77 -77l30 30l-77 77l77 77z" />
    <glyph glyph-name="close-network" unicode="close&#x2d;network" 
d="M311 320l-55 -55l-55 55l-30 -30l55 -55l-55 -56l30 -30l55 56l55 -56l30 30l-55 56l55 55zM363 384q18 0 30 -12.5t12 -30.5v-213q0 -18 -12 -30t-30 -13h-86v-42h22q9 -1 15 -7t6 -15h149v-42h-149q0 -9 -6 -15t-15 -7h-86q-9 1 -15 7t-6 15h-149v42h149q0 9 6 15t15 7
h22v42h-86q-18 1 -30 13t-12 30v213q0 18 12 30.5t30 12.5h214z" />
    <glyph glyph-name="close" unicode="close" 
d="M405 311l-119 -119l119 -119l-30 -30l-119 119l-119 -119l-30 30l119 119l-119 119l30 30l119 -119l119 119z" />
    <glyph glyph-name="closed-caption" unicode="closed&#x2d;caption" 
d="M384 213v22q0 9 -6 15t-15 6h-64q-9 0 -15 -6t-7 -15v-86q1 -9 7 -15t15 -6h64q9 0 15 6t6 15v22h-32v-11h-43v64h43v-11h32zM235 213v22q-1 9 -7 15t-15 6h-64q-9 0 -15 -6t-6 -15v-86q0 -9 6 -15t15 -6h64q9 0 15 6t7 15v22h-32v-11h-43v64h43v-11h32zM405 363
q18 -1 30.5 -13t12.5 -30v-256q0 -18 -12.5 -30t-30.5 -13h-298q-18 1 -30.5 13t-12.5 30v256q0 18 12 30t31 13h298z" />
    <glyph glyph-name="cloud-check" unicode="cloud&#x2d;check" 
d="M213 85l141 141l-30 30l-111 -110l-44 44l-30 -30zM413 234q42 -4 70 -33.5t29 -72.5q-1 -45 -31 -75.5t-76 -31.5h-277q-54 2 -90.5 38t-37.5 90q1 51 33 86t81 42q21 39 58 62t84 24q59 -1 102 -37t55 -92z" />
    <glyph glyph-name="cloud-download" unicode="cloud&#x2d;download" 
d="M363 171h-64v85h-86v-85h-64l107 -107zM413 234q42 -4 70 -33.5t29 -72.5q-1 -45 -31 -75.5t-76 -31.5h-277q-54 2 -90.5 38t-37.5 90q1 51 33 86t81 42q21 39 58 62t84 24q59 -1 102 -37t55 -92z" />
    <glyph glyph-name="cloud-outline-off" unicode="cloud&#x2d;outline&#x2d;off" 
d="M165 235h-37q-36 -1 -60 -25t-24 -60.5t24 -60.5t60 -25h208zM64 336l27 27l357 -357l-27 -27l-43 42h-250q-54 2 -90.5 38t-37.5 90q1 53 35.5 89t87.5 39zM413 234q42 -4 70 -33.5t29 -72.5q0 -27 -12 -49.5t-33 -37.5l-31 31q15 8 24 23t9 33q0 27 -18 45t-46 19h-32
v11q-1 50 -34 83t-83 34q-30 0 -54 -13l-31 31q37 24 85 25q59 -1 102 -37t55 -92z" />
    <glyph glyph-name="cloud-outline" unicode="cloud&#x2d;outline" 
d="M405 64q28 1 46 19t18 45t-18 45t-46 19h-32v11q-1 50 -34 83t-83 34q-41 -1 -71.5 -24.5t-41.5 -60.5h-15q-36 -1 -60 -25t-24 -60.5t24 -60.5t60 -25h277zM413 234q42 -4 70 -33.5t29 -72.5q-1 -45 -31 -75.5t-76 -31.5h-277q-54 2 -90.5 38t-37.5 90q1 51 33 86t81 42
q21 39 58 62t84 24q59 -1 102 -37t55 -92z" />
    <glyph glyph-name="cloud-upload" unicode="cloud&#x2d;upload" 
d="M299 171h64l-107 106l-107 -106h64v-86h86v86zM413 234q42 -4 70 -33.5t29 -72.5q-1 -45 -31 -75.5t-76 -31.5h-277q-54 2 -90.5 38t-37.5 90q1 51 33 86t81 42q21 39 58 62t84 24q59 -1 102 -37t55 -92z" />
    <glyph glyph-name="cloud" unicode="cloud" 
d="M413 234q42 -4 70 -33.5t29 -72.5q-1 -45 -31 -75.5t-76 -31.5h-277q-54 2 -90.5 38t-37.5 90q1 51 33 86t81 42q21 39 58 62t84 24q59 -1 102 -37t55 -92z" />
    <glyph glyph-name="code-braces" unicode="code&#x2d;braces" 
d="M171 384h42v-43h-42v-106q-1 -18 -13 -30.5t-30 -12.5q18 0 30 -12.5t13 -30.5v-106h42v-43h-42q-18 0 -30.5 12.5t-12.5 30.5v85q0 18 -12.5 30t-30.5 13h-21v42h21q18 1 30.5 13t12.5 30v85q0 18 12.5 30.5t30.5 12.5zM341 384q18 0 30.5 -12.5t12.5 -30.5v-85
q0 -18 12.5 -30t30.5 -13h21v-42h-21q-18 -1 -30.5 -13t-12.5 -30v-85q0 -18 -12.5 -30.5t-30.5 -12.5h-42v43h42v106q1 18 13 30.5t30 12.5q-18 0 -30 12.5t-13 30.5v106h-42v43h42z" />
    <glyph glyph-name="code-brackets" unicode="code&#x2d;brackets" 
d="M320 363h107v-342h-107v43h64v256h-64v43zM85 363h107v-43h-64v-256h64v-43h-107v342z" />
    <glyph glyph-name="code-parentheses" unicode="code&#x2d;parentheses" 
d="M376 384q24 -37 37.5 -86.5t13.5 -105.5t-13.5 -105.5t-37.5 -86.5l-35 22q21 31 32 75t11 95t-11 95t-32 75zM136 384l35 -22q-21 -31 -32 -75t-11 -95t11 -95t32 -75l-35 -22q-24 37 -37.5 86.5t-13.5 105.5t13.5 105.5t37.5 86.5z" />
    <glyph glyph-name="code-tags" unicode="code&#x2d;tags" 
d="M311 94l99 98l-99 98l30 30l128 -128l-128 -128zM201 94l-30 -30l-128 128l128 128l30 -30l-99 -98z" />
    <glyph glyph-name="comment-account-outline" unicode="comment&#x2d;account&#x2d;outline" 
d="M192 -21q-9 0 -15 6t-6 15v64h-86q-18 0 -30 12.5t-12 30.5v256q0 18 12 30t30 12h342q18 0 30 -12t12 -30v-256q0 -18 -12 -30.5t-30 -12.5h-130l-79 -79q-7 -6 -15 -6h-11zM213 107v-66l66 66h148v256h-342v-256h128zM341 149h-170v22q2 21 31.5 31.5t53.5 10.5
t53.5 -10.5t31.5 -31.5v-22zM256 320q18 0 30 -12.5t12 -30.5t-12 -30t-30 -12t-30 12t-12 30t12 30.5t30 12.5z" />
    <glyph glyph-name="comment-account" unicode="comment&#x2d;account" 
d="M192 -21q-9 0 -15 6t-6 15v64h-86q-18 0 -30 12.5t-12 30.5v256q0 18 12 30t30 12h342q18 0 30 -12t12 -30v-256q0 -18 -12 -30.5t-30 -12.5h-130l-79 -79q-7 -6 -15 -6h-11zM341 149v22q-2 21 -31.5 31.5t-53.5 10.5t-53.5 -10.5t-31.5 -31.5v-22h170zM256 320
q-18 0 -30 -12.5t-12 -30.5t12 -30t30 -12t30 12t12 30t-12 30.5t-30 12.5z" />
    <glyph glyph-name="comment-alert-outline" unicode="comment&#x2d;alert&#x2d;outline" 
d="M192 -21q-9 0 -15 6t-6 15v64h-86q-18 0 -30 12.5t-12 30.5v256q0 18 12 30t30 12h342q18 0 30 -12t12 -30v-256q0 -18 -12 -30.5t-30 -12.5h-130l-79 -79q-7 -6 -15 -6h-11zM213 107v-66l66 66h148v256h-342v-256h128zM277 235h-42v85h42v-85zM277 149h-42v43h42v-43z
" />
    <glyph glyph-name="comment-alert" unicode="comment&#x2d;alert" 
d="M192 -21q-9 0 -15 6t-6 15v64h-86q-18 0 -30 12.5t-12 30.5v256q0 18 12 30t30 12h342q18 0 30 -12t12 -30v-256q0 -18 -12 -30.5t-30 -12.5h-130l-79 -79q-7 -6 -15 -6h-11zM277 235v85h-42v-85h42zM277 149v43h-42v-43h42z" />
    <glyph glyph-name="comment-check-outline" unicode="comment&#x2d;check&#x2d;outline" 
d="M192 -21q-9 0 -15 6t-6 15v64h-86q-18 0 -30 12.5t-12 30.5v256q0 18 12 30t30 12h342q18 0 30 -12t12 -30v-256q0 -18 -12 -30.5t-30 -12.5h-130l-79 -79q-7 -6 -15 -6h-11zM213 107v-66l66 66h148v256h-342v-256h128zM352 277l-117 -117l-75 75l30 30l45 -45l87 87z
" />
    <glyph glyph-name="comment-check" unicode="comment&#x2d;check" 
d="M192 -21q-9 0 -15 6t-6 15v64h-86q-18 0 -30 12.5t-12 30.5v256q0 18 12 30t30 12h342q18 0 30 -12t12 -30v-256q0 -18 -12 -30.5t-30 -12.5h-130l-79 -79q-7 -6 -15 -6h-11zM213 128l171 171l-30 30l-141 -141l-55 55l-30 -30z" />
    <glyph glyph-name="comment-multiple-outline" unicode="comment&#x2d;multiple&#x2d;outline" 
d="M256 -43q-9 1 -15 7t-6 15v64h-86q-18 0 -30 12t-12 30v214q0 18 12 30t30 12h299q18 0 30 -12t13 -30v-214q-1 -18 -13 -30t-30 -12h-87l-79 -79q-7 -7 -15 -7h-11zM277 85v-65l66 65h105v214h-299v-214h128zM64 128h-43v256q1 18 13 30t30 13h341v-43h-341v-256z" />
    <glyph glyph-name="comment-outline" unicode="comment&#x2d;outline" 
d="M192 -21q-9 0 -15 6t-6 15v64h-86q-18 0 -30 12.5t-12 30.5v256q0 18 12 30t30 12h342q18 0 30 -12t12 -30v-256q0 -18 -12 -30.5t-30 -12.5h-130l-79 -79q-7 -6 -15 -6h-11zM213 107v-66l66 66h148v256h-342v-256h128z" />
    <glyph glyph-name="comment-plus-outline" unicode="comment&#x2d;plus&#x2d;outline" 
d="M192 -21q-9 0 -15 6t-6 15v64h-86q-18 0 -30 12.5t-12 30.5v256q0 18 12 30t30 12h342q18 0 30 -12t12 -30v-256q0 -18 -12 -30.5t-30 -12.5h-130l-79 -79q-7 -6 -15 -6h-11zM213 107v-66l66 66h148v256h-342v-256h128zM235 320h42v-64h64v-43h-64v-64h-42v64h-64v43h64
v64z" />
    <glyph glyph-name="comment-processing-outline" unicode="comment&#x2d;processing&#x2d;outline" 
d="M192 -21q-9 0 -15 6t-6 15v64h-86q-18 0 -30 12.5t-12 30.5v256q0 18 12 30t30 12h342q18 0 30 -12t12 -30v-256q0 -18 -12 -30.5t-30 -12.5h-130l-79 -79q-7 -6 -15 -6h-11zM213 107v-66l66 66h148v256h-342v-256h128zM363 213h-43v43h43v-43zM277 213h-42v43h42v-43z
M192 213h-43v43h43v-43z" />
    <glyph glyph-name="comment-processing" unicode="comment&#x2d;processing" 
d="M192 -21q-9 0 -15 6t-6 15v64h-86q-18 0 -30 12.5t-12 30.5v256q0 18 12 30t30 12h342q18 0 30 -12t12 -30v-256q0 -18 -12 -30.5t-30 -12.5h-130l-79 -79q-7 -6 -15 -6h-11zM363 213v43h-43v-43h43zM277 213v43h-42v-43h42zM192 213v43h-43v-43h43z" />
    <glyph glyph-name="comment-remove-outline" unicode="comment&#x2d;remove&#x2d;outline" 
d="M192 -21q-9 0 -15 6t-6 15v64h-86q-18 0 -30 12.5t-12 30.5v256q0 18 12 30t30 12h342q18 0 30 -12t12 -30v-256q0 -18 -12 -30.5t-30 -12.5h-130l-79 -79q-7 -6 -15 -6h-11zM213 107v-66l66 66h148v256h-342v-256h128zM201 320l55 -55l55 55l30 -30l-55 -55l55 -56
l-30 -30l-55 56l-55 -56l-30 30l55 56l-55 55z" />
    <glyph glyph-name="comment-text-outline" unicode="comment&#x2d;text&#x2d;outline" 
d="M192 -21q-9 0 -15 6t-6 15v64h-86q-18 0 -30 12.5t-12 30.5v256q0 18 12 30t30 12h342q18 0 30 -12t12 -30v-256q0 -18 -12 -30.5t-30 -12.5h-130l-79 -79q-7 -6 -15 -6h-11zM213 107v-66l66 66h148v256h-342v-256h128zM128 299h256v-43h-256v43zM128 213h192v-42h-192
v42z" />
    <glyph glyph-name="comment-text" unicode="comment&#x2d;text" 
d="M192 -21q-9 0 -15 6t-6 15v64h-86q-18 0 -30 12.5t-12 30.5v256q0 18 12 30t30 12h342q18 0 30 -12t12 -30v-256q0 -18 -12 -30.5t-30 -12.5h-130l-79 -79q-7 -6 -15 -6h-11zM107 341v-42h298v42h-298zM107 256v-43h170v43h-170zM107 171v-43h213v43h-213z" />
    <glyph glyph-name="comment" unicode="comment" 
d="M192 -21q-9 0 -15 6t-6 15v64h-86q-18 0 -30 12.5t-12 30.5v256q0 18 12 30t30 12h342q18 0 30 -12t12 -30v-256q0 -18 -12 -30.5t-30 -12.5h-130l-79 -79q-7 -6 -15 -6h-11z" />
    <glyph glyph-name="compass-outline" unicode="compass&#x2d;outline" 
d="M149 85l69 145l145 69l-69 -145zM256 211q-8 0 -13.5 -5.5t-5.5 -13.5t5.5 -13.5t13.5 -5.5t13.5 5.5t5.5 13.5t-5.5 13.5t-13.5 5.5zM256 405q91 -2 151 -62t62 -151q-2 -91 -62 -151t-151 -62q-91 2 -151 62t-62 151q2 91 62 151t151 62zM256 363q-73 -2 -121 -50
t-50 -121q2 -73 50 -121t121 -50q73 2 121 50t50 121q-2 73 -50 121t-121 50z" />
    <glyph glyph-name="compass" unicode="compass" 
d="M303 145l81 175l-175 -81l-81 -175zM256 405q91 -2 151 -62t62 -151q-2 -91 -62 -151t-151 -62q-91 2 -151 62t-62 151q2 91 62 151t151 62zM256 215q10 0 16.5 -6.5t6.5 -16.5t-6.5 -16.5t-16.5 -6.5t-16.5 6.5t-6.5 16.5t6.5 16.5t16.5 6.5z" />
    <glyph glyph-name="content-save" unicode="content&#x2d;save" 
d="M320 256v85h-213v-85h213zM256 43q27 0 45 18t18 45.5t-18 45.5t-45 18t-45 -18t-18 -45.5t18 -45.5t45 -18zM363 384l85 -85v-256q0 -18 -12.5 -30.5t-30.5 -12.5h-298q-18 0 -30.5 12.5t-12.5 30.5v298q0 18 12 30.5t31 12.5h256z" />
    <glyph glyph-name="credit-card-multiple" unicode="credit&#x2d;card&#x2d;multiple" 
d="M448 277v43h-299v-43h299zM448 107v106h-299v-106h299zM448 363q18 -1 30 -13t13 -30v-213q-1 -18 -13 -30.5t-30 -12.5h-299q-18 0 -30 12.5t-12 30.5v213q0 18 12 30t30 13h299zM64 21h320v-42h-320q-18 0 -30 12t-13 30v235h43v-235z" />
    <glyph glyph-name="credit-card-scan" unicode="credit&#x2d;card&#x2d;scan" 
d="M43 363v-86h-43v86q0 18 12.5 30t30.5 12h85v-42h-85zM469 405q18 0 30.5 -12t12.5 -30v-86h-43v86h-85v42h85zM43 107v-86h85v-42h-85q-18 0 -30.5 12t-12.5 30v86h43zM469 21v86h43v-86q0 -18 -12.5 -30t-30.5 -12h-85v42h85zM85 277q1 18 13 30.5t30 12.5h256
q18 0 30 -12.5t13 -30.5v-170q-1 -18 -13 -30.5t-30 -12.5h-256q-18 0 -30 12.5t-13 30.5v170zM128 107h256v85h-256v-85zM384 277h-256v-42h256v42z" />
    <glyph glyph-name="credit-card" unicode="credit&#x2d;card" 
d="M427 277v43h-342v-43h342zM427 64v128h-342v-128h342zM427 363q18 -1 30 -13t12 -30v-256q0 -18 -12 -30t-30 -13h-342q-18 1 -30 13t-12 30v256q0 18 12 30t30 13h342z" />
    <glyph glyph-name="crop-free" unicode="crop&#x2d;free" 
d="M405 384q18 0 30.5 -12t12.5 -31v-85h-43v85h-85v43h85zM405 43v85h43v-85q0 -18 -12.5 -30.5t-30.5 -12.5h-85v43h85zM107 128v-85h85v-43h-85q-18 0 -30.5 12.5t-12.5 30.5v85h43zM64 341q0 18 12.5 30.5t30.5 12.5h85v-43h-85v-85h-43v85z" />
    <glyph glyph-name="crop" unicode="crop" 
d="M149 85h342v-42h-86v-86h-42v86h-214q-18 0 -30 12t-12 30v214h-86v42h86v86h42v-342zM363 128v171h-171v42h171q18 0 30 -12t12 -30v-171h-42z" />
    <glyph glyph-name="crosshairs-gps" unicode="crosshairs&#x2d;gps" 
d="M256 277q36 -1 60 -25t24 -60t-24 -60t-60 -24t-60 24t-24 60t24 60t60 25zM65 171h-44v42h44q9 68 55.5 114.5t114.5 55.5v44h42v-44q68 -9 114.5 -55.5t55.5 -114.5h44v-42h-44q-9 -68 -55.5 -114.5t-114.5 -55.5v-44h-42v44q-68 9 -114.5 55.5t-55.5 114.5zM256 341
q-64 -1 -106 -43t-43 -106q1 -64 43 -106t106 -43q64 1 106 43t43 106q-1 64 -43 106t-106 43z" />
    <glyph glyph-name="crosshairs" unicode="crosshairs" 
d="M65 171h-44v42h44q9 68 55.5 114.5t114.5 55.5v44h42v-44q68 -9 114.5 -55.5t55.5 -114.5h44v-42h-44q-9 -68 -55.5 -114.5t-114.5 -55.5v-44h-42v44q-68 9 -114.5 55.5t-55.5 114.5zM256 341q-64 -1 -106 -43t-43 -106q1 -64 43 -106t106 -43q64 1 106 43t43 106
q-1 64 -43 106t-106 43z" />
    <glyph glyph-name="crown" unicode="crown" 
d="M107 107l-43 234l117 -149l75 149l75 -149l117 149l-43 -234h-298zM405 43q0 -9 -6 -15t-15 -7h-256q-9 1 -15 7t-6 15v21h298v-21z" />
    <glyph glyph-name="delete" unicode="delete" 
d="M405 363v-43h-298v43h74l22 21h106l22 -21h74zM128 43v256h256v-256q0 -18 -12.5 -30.5t-30.5 -12.5h-170q-18 0 -30.5 12.5t-12.5 30.5z" />
    <glyph glyph-name="desktop-mac" unicode="desktop&#x2d;mac" 
d="M448 149v214h-384v-214h384zM448 405q18 0 30 -12t13 -30v-256q-1 -18 -13 -30.5t-30 -12.5h-149l42 -64v-21h-170v21l42 64h-149q-18 0 -30 12.5t-13 30.5v256q1 18 13 30t30 12h384z" />
    <glyph glyph-name="details" unicode="details" 
d="M136 320l120 -213l120 213h-240zM64 363h384l-192 -342z" />
    <glyph glyph-name="domain" unicode="domain" 
d="M384 128v-43h-43v43h43zM384 213v-42h-43v42h43zM427 43v213h-171v-43h43v-42h-43v-43h43v-43h-43v-42h171zM213 299v42h-42v-42h42zM213 213v43h-42v-43h42zM213 128v43h-42v-43h42zM213 43v42h-42v-42h42zM128 299v42h-43v-42h43zM128 213v43h-43v-43h43zM128 128v43
h-43v-43h43zM128 43v42h-43v-42h43zM256 299h213v-299h-426v384h213v-85z" />
    <glyph glyph-name="dots-horizontal" unicode="dots&#x2d;horizontal" 
d="M341 192q1 18 13 30t30 12t30 -12t12 -30t-12 -30t-30 -12t-30 12t-13 30zM213 192q1 18 13 30t30 12t30 -12t12 -30t-12 -30t-30 -12t-30 12t-13 30zM85 192q1 18 13 30t30 12t30 -12t12 -30t-12 -30t-30 -12t-30 12t-13 30z" />
    <glyph glyph-name="dots-vertical" unicode="dots&#x2d;vertical" 
d="M256 107q18 -1 30 -13t12 -30t-12 -30t-30 -12t-30 12t-12 30t12 30t30 13zM256 235q18 -1 30 -13t12 -30t-12 -30t-30 -12t-30 12t-12 30t12 30t30 13zM256 363q18 -1 30 -13t12 -30t-12 -30t-30 -12t-30 12t-12 30t12 30t30 13z" />
    <glyph glyph-name="download" unicode="download" 
d="M107 21v43h298v-43h-298zM405 256l-149 -149l-149 149h85v128h128v-128h85z" />
    <glyph glyph-name="earth-off" unicode="earth&#x2d;off" 
d="M469 336l-32 -32q32 -50 32 -112q-2 -91 -62 -151t-151 -62q-62 0 -112 32l-32 -32l-27 27l357 357zM382 77q21 23 32.5 52.5t12.5 62.5q-1 44 -21 81l-90 -90q4 -6 4 -12v-64h21q15 -1 25.5 -9t15.5 -21zM235 23v41q-16 0 -27 10l-33 -32q28 -15 60 -19zM320 350v-9
q0 -18 -12.5 -30t-30.5 -12h-42v-43q-1 -9 -7 -15t-15 -6h-42v-43h46l-44 -45l-83 83q-5 -18 -5 -38q1 -57 32 -100l-30 -30q-21 27 -32.5 60t-11.5 70q2 91 62 151t151 62q37 0 70 -11.5t60 -32.5l-30 -30q-17 11 -36 19z" />
    <glyph glyph-name="earth" unicode="earth" 
d="M382 77q21 23 32.5 52.5t12.5 62.5q-1 55 -30 96.5t-77 61.5v-9q0 -18 -12.5 -30t-30.5 -12h-42v-43q-1 -9 -7 -15t-15 -6h-42v-43h128q9 0 15 -6t6 -15v-64h21q15 -1 25.5 -9t15.5 -21zM235 23v41q-18 0 -30.5 12.5t-12.5 30.5v21l-102 102q-5 -18 -5 -38
q2 -67 43.5 -113.5t106.5 -55.5zM256 405q91 -2 151 -62t62 -151q-2 -91 -62 -151t-151 -62q-91 2 -151 62t-62 151q2 91 62 151t151 62z" />
    <glyph glyph-name="eject" unicode="eject" 
d="M256 341l142 -213h-284zM107 85h298v-42h-298v42z" />
    <glyph glyph-name="elevation-decline" unicode="elevation&#x2d;decline" 
d="M448 0h-384v208l138 -80l80 47l166 -96v-79zM64 257v47l138 -80l80 47l166 -96v-47l-166 96l-80 -46z" />
    <glyph glyph-name="elevation-rise" unicode="elevation&#x2d;rise" 
d="M64 0v79l166 96l80 -47l138 80v-208h-384zM448 257l-138 -79l-80 46l-166 -96v47l166 96l80 -47l138 80v-47z" />
    <glyph glyph-name="email-open" unicode="email&#x2d;open" 
d="M469 277v-213q0 -18 -12 -30t-30 -13h-342q-18 1 -30 13t-12 30v213q0 12 6 22t16 16l191 110l191 -110q10 -6 16 -16t6 -22zM85 277l171 -106l171 106l-171 107z" />
    <glyph glyph-name="email-outline" unicode="email&#x2d;outline" 
d="M427 363q18 -1 30 -13t12 -30v-256q0 -18 -12 -30t-30 -13h-342q-18 1 -30 13t-12 30v256q0 18 12 30t30 13h342zM427 64v213l-171 -106l-171 106v-213h342zM427 320h-342l171 -107z" />
    <glyph glyph-name="email" unicode="email" 
d="M427 277v43l-171 -107l-171 107v-43l171 -106zM427 363q18 -1 30 -13t12 -30v-256q0 -18 -12 -30t-30 -13h-342q-18 1 -30 13t-12 30v256q0 18 12 30t30 13h342z" />
    <glyph glyph-name="eraser" unicode="eraser" 
d="M346 372l106 -105q13 -14 13 -31t-13 -30l-196 -196q-26 -25 -60 -25t-61 25l-75 75q-13 14 -13 31t13 30l226 226q13 13 30 13t30 -13zM90 116l76 -76q13 -12 30 -12t30 12l75 76l-105 105z" />
    <glyph glyph-name="exit-to-app" unicode="exit&#x2d;to&#x2d;app" 
d="M405 384q18 0 30.5 -12t12.5 -31v-298q0 -18 -12.5 -30.5t-30.5 -12.5h-298q-18 0 -30.5 12.5t-12.5 30.5v85h43v-85h298v298h-298v-85h-43v85q0 19 12 31t31 12h298zM215 116l55 55h-206v42h206l-55 56l30 30l107 -107l-107 -107z" />
    <glyph glyph-name="export" unicode="export" 
d="M491 192l-86 -85v64h-192v42h192v64zM21 64v256q1 18 13 30t30 13h256q18 -1 30 -13t13 -30v-64h-43v64h-256v-256h256v64h43v-64q-1 -18 -13 -30t-30 -13h-256q-18 1 -30 13t-13 30z" />
    <glyph glyph-name="eye-off" unicode="eye&#x2d;off" 
d="M252 256h4q27 -1 45 -19t19 -45v-3zM161 239q-11 -22 -12 -47q1 -45 31.5 -75.5t75.5 -31.5q25 1 47 12l-33 33q-7 -2 -14 -2q-27 1 -45 19t-19 45q0 7 2 14zM43 357l27 27l378 -378l-27 -27l-72 71q-43 -18 -93 -18q-81 1 -143.5 45t-91.5 115q26 65 80 107l-10 9z
M256 299q-21 -1 -39 -8l-46 46q40 15 85 15q81 -1 143.5 -45t91.5 -115q-25 -60 -74 -101l-62 62q8 18 8 39q-1 45 -31.5 75.5t-75.5 31.5z" />
    <glyph glyph-name="eye" unicode="eye" 
d="M256 256q27 -1 45 -19t18 -45t-18 -45t-45 -18t-45 18t-18 45t18 45t45 19zM256 85q45 1 75.5 31.5t31.5 75.5q-1 45 -31.5 75.5t-75.5 31.5q-45 -1 -75.5 -31.5t-31.5 -75.5q1 -45 31.5 -75.5t75.5 -31.5zM256 352q81 -1 143.5 -45t91.5 -115q-29 -71 -91.5 -115
t-143.5 -45q-81 1 -143.5 45t-91.5 115q29 71 91.5 115t143.5 45z" />
    <glyph glyph-name="eyedropper" unicode="eyedropper" 
d="M413 198l-46 -45l-30 30l-164 -165l-98 -39l-32 32l39 98l165 164l-30 30l45 46zM358 384q19 19 44.5 19t45 -19.5t19.5 -45t-19 -44.5l-41 -41l-90 90zM119 85l-23 -53l53 23l158 158l-30 30z" />
    <glyph glyph-name="fast-forward" unicode="fast&#x2d;forward" 
d="M277 320l182 -128l-182 -128v256zM85 64v256l182 -128z" />
    <glyph glyph-name="file-chart" unicode="file&#x2d;chart" 
d="M277 256h118l-118 117v-117zM128 405h171l128 -128v-256q-1 -18 -13 -30t-30 -12h-256q-18 0 -30 12t-13 30v342q1 18 13 30t30 12zM149 21h43v128h-43v-128zM235 21h42v171h-42v-171zM320 21h43v86h-43v-86z" />
    <glyph glyph-name="file-check" unicode="file&#x2d;check" 
d="M277 256h118l-118 117v-117zM128 405h171l128 -128v-256q-1 -18 -13 -30t-30 -12h-256q-18 0 -30 12t-13 30v342q1 18 13 30t30 12zM223 54l101 102l-25 30l-76 -77l-34 34l-25 -25z" />
    <glyph glyph-name="file-cloud" unicode="file&#x2d;cloud" 
d="M277 256h118l-118 117v-117zM128 405h171l128 -128v-256q-1 -18 -13 -30t-30 -12h-256q-18 0 -30 12t-13 30v342q1 18 13 30t30 12zM335 128q-7 28 -28 45.5t-51 18.5q-23 0 -42 -11.5t-29 -31.5q-25 -3 -40.5 -20.5t-16.5 -43.5q1 -27 19 -45t45 -19h139q22 1 37 16
t15 37t-13.5 37t-34.5 17z" />
    <glyph glyph-name="file-delimited" unicode="file&#x2d;delimited" 
d="M277 256h118l-118 117v-117zM128 405h171l128 -128v-256q-1 -18 -13 -30t-30 -12h-256q-18 0 -30 12t-13 30v342q1 18 13 30t30 12zM299 128v85h-86v-85h49q6 -31 -6.5 -51.5t-48.5 -41.5l24 -18q35 22 51.5 57t16.5 54z" />
    <glyph glyph-name="file-document" unicode="file&#x2d;document" 
d="M277 256h118l-118 117v-117zM128 405h171l128 -128v-256q-1 -18 -13 -30t-30 -12h-256q-18 0 -30 12t-13 30v342q1 18 13 30t30 12zM320 64v43h-192v-43h192zM384 149v43h-256v-43h256z" />
    <glyph glyph-name="file-find" unicode="file&#x2d;find" 
d="M192 171q1 27 19 45t45 18t45 -18t18 -45.5t-18 -45.5t-45 -18t-45 18t-19 46zM427 30l-82 82q17 26 18 59q-1 45 -31.5 75t-75.5 31q-45 -1 -75.5 -31t-31.5 -75q1 -46 31.5 -76t75.5 -31q33 1 59 18l94 -95q-11 -8 -25 -8h-256q-18 0 -30 12t-13 30v342q1 18 13 30
t30 12h171l128 -128v-247z" />
    <glyph glyph-name="file-image-box" unicode="file&#x2d;image&#x2d;box" 
d="M181 160l-74 -96h298l-96 128l-74 -96zM448 43q0 -18 -12.5 -30.5t-30.5 -12.5h-298q-18 0 -30.5 12.5t-12.5 30.5v298q0 18 12.5 30.5t30.5 12.5h298q18 0 30.5 -12t12.5 -31v-298z" />
    <glyph glyph-name="file-image" unicode="file&#x2d;image" 
d="M277 256h118l-118 117v-117zM128 405h171l128 -128v-256q-1 -18 -13 -30t-30 -12h-256q-18 0 -30 12t-13 30v342q1 18 13 30t30 12zM128 21h256v171l-85 -85l-43 42zM171 256q-18 0 -30.5 -12.5t-12.5 -30.5t12.5 -30t30.5 -12t30 12t12 30t-12 30.5t-30 12.5z" />
    <glyph glyph-name="file-lock" unicode="file&#x2d;lock" 
d="M128 405h171l128 -128v-256q-1 -18 -13 -30t-30 -12h-256q-18 0 -30 12t-13 30v342q1 18 13 30t30 12zM277 373v-117h118zM256 213q-27 0 -45 -18.5t-19 -45.5v-21h-21v-85h170v85h-21v21q-1 28 -19 46t-45 18zM256 171q9 -1 15 -7t6 -15v-21h-42v21q0 9 6 15t15 7z" />
    <glyph glyph-name="file-multiple" unicode="file&#x2d;multiple" 
d="M320 299h117l-117 117v-117zM171 448h170l128 -128v-256q0 -18 -12 -30t-30 -13h-256q-19 1 -31 13t-12 30v341q0 18 12.5 30.5t30.5 12.5zM85 363v-384h342v-43h-342q-18 0 -30 12.5t-12 30.5v384h42z" />
    <glyph glyph-name="file-outline" unicode="file&#x2d;outline" 
d="M277 256h118l-118 117v-117zM128 405h171l128 -128v-256q-1 -18 -13 -30t-30 -12h-256q-18 0 -30 12t-13 30v342q1 18 13 30t30 12zM235 363h-107v-342h256v192h-149v150z" />
    <glyph glyph-name="file-pdf" unicode="file&#x2d;pdf" 
d="M299 256h117l-117 117v-117zM149 405h171l128 -128v-256q0 -18 -12.5 -30t-30.5 -12h-256q-18 0 -30 12t-12 30v342q0 18 12 30t30 12zM255 183q13 -30 32 -46l9 -7q-29 -5 -71 -20l-3 -1l11 22q14 28 22 52zM393 101q5 6 6 13.5t-3 12.5q-9 15 -48 15l-28 -2l-19 13
q-20 17 -34 54l1 3q6 22 8 44t-8 33q-6 5 -13 5h-5q-6 0 -11 -5t-6 -11q-6 -21 -4 -36t8 -34q-7 -29 -23 -63l-20 -38l-19 -10q-19 -13 -29 -25t-11 -21q-1 -6 1 -11l1 -1l10 -7l9 -2q13 0 28.5 15.5t35.5 49.5l3 2q32 10 86 16q17 -8 34.5 -12t30.5 -4t19 6zM384 116l2 -2
q0 -3 -2 -3h-5q-16 0 -40 11q2 2 4 2q22 0 31 -3t10 -5zM188 85q-21 -38 -36 -42q1 6 8 15.5t18 20.5zM253 233q-7 29 -2 43l2 3l3 -1q5 -7 2 -23l-4 -21z" />
    <glyph glyph-name="file-send" unicode="file&#x2d;send" 
d="M299 405l128 -128v-256q-1 -18 -13 -30t-30 -12h-256q-18 0 -30 12t-13 30v342q1 18 13 30t30 12h171zM268 35l64 64l-64 64v-43h-86v-43h86v-42zM277 256h118l-118 117v-117z" />
    <glyph glyph-name="file-video" unicode="file&#x2d;video" 
d="M277 256h118l-118 117v-117zM128 405h171l128 -128v-256q-1 -18 -13 -30t-30 -12h-256q-18 0 -30 12t-13 30v342q1 18 13 30t30 12zM363 43v128l-64 -47v47h-150v-128h150v47z" />
    <glyph glyph-name="file-xml" unicode="file&#x2d;xml" 
d="M277 256h118l-118 117v-117zM128 405h171l128 -128v-256q-1 -18 -13 -30t-30 -12h-256q-18 0 -30 12t-13 30v342q1 18 13 30t30 12zM131 117l79 -79l31 30l-50 49l50 50l-31 30zM369 117l-80 80l-30 -30l49 -50l-49 -49l30 -30z" />
    <glyph glyph-name="file" unicode="file" 
d="M277 256h118l-118 117v-117zM128 405h171l128 -128v-256q-1 -18 -13 -30t-30 -12h-256q-18 0 -30 12t-13 30v342q1 18 13 30t30 12z" />
    <glyph glyph-name="filter-outline" unicode="filter&#x2d;outline" 
d="M64 405h384v-42h-2l-126 -127v-277l-128 128v150l-126 126h-2v42zM235 105l42 -43v194h2l107 107h-260l107 -107h2v-151z" />
    <glyph glyph-name="filter-remove-outline" unicode="filter&#x2d;remove&#x2d;outline" 
d="M314 4l61 60l-61 60l31 30l60 -59l60 59l30 -30l-60 -60l60 -60l-30 -30l-60 60l-60 -60zM43 405h384v-42h-2l-126 -127v-277l-128 128v150l-126 126h-2v42zM213 105l43 -43v194h2l107 107h-260l107 -107h1v-151z" />
    <glyph glyph-name="filter-remove" unicode="filter&#x2d;remove" 
d="M315 4l60 60l-60 60l30 30l60 -59l61 59l30 -30l-60 -60l60 -60l-30 -30l-61 60l-60 -60zM43 405h384v-42h-2l-148 -148v-256l-85 86v170l-147 148h-2v42z" />
    <glyph glyph-name="filter" unicode="filter" 
d="M64 405h384v-42h-2l-147 -148v-256l-86 86v170l-147 148h-2v42z" />
    <glyph glyph-name="flag" unicode="flag" 
d="M307 320h120v-213h-150l-8 42h-120v-149h-42v363h192z" />
    <glyph glyph-name="floppy" unicode="floppy" 
d="M96 -21l-53 53v331q0 18 12 30t30 12h342q18 0 30 -12t12 -30v-342q0 -18 -12 -30t-30 -12h-64v149q-1 9 -7 15t-15 6h-192q-9 0 -15 -6t-6 -15v-149h-32zM107 363v-128q0 -9 6 -15t15 -7h256q9 1 15 7t6 15v128h-298zM171 107h64v-86h-64v86zM427 363v-22h21v22h-21z
" />
    <glyph glyph-name="folder-account" unicode="folder&#x2d;account" 
d="M405 85v22q-2 21 -31.5 31.5t-53.5 10.5t-53.5 -10.5t-31.5 -31.5v-22h170zM320 256q-18 0 -30 -12t-12 -30.5t12 -30.5t30 -12t30 12t12 30t-12 30.5t-30 12.5zM427 320q18 0 30 -12t12 -31v-213q0 -18 -12 -30t-30 -13h-342q-18 1 -30 13t-12 30v256q0 18 12 30t30 13
h128l43 -43h171z" />
    <glyph glyph-name="folder-download" unicode="folder&#x2d;download" 
d="M427 320q18 0 30 -12.5t12 -30.5v-213q0 -18 -12 -30t-30 -13h-342q-18 1 -30 13t-12 30v256q0 18 12 30t30 13h128l43 -43h171zM411 171h-70v85h-42v-85h-70l91 -91z" />
    <glyph glyph-name="folder-image" unicode="folder&#x2d;image" 
d="M107 85h298l-74 96l-54 -64l-74 96zM427 320q18 0 30 -12.5t12 -30.5v-213q0 -18 -12 -30t-30 -13h-342q-18 1 -30 13t-12 30v256q0 18 12 30t30 13h128l43 -43h171z" />
    <glyph glyph-name="folder-lock-open" unicode="folder&#x2d;lock&#x2d;open" 
d="M427 320q18 0 30 -12.5t12 -30.5v-213q0 -18 -12 -30t-30 -13h-342q-18 1 -30 13t-12 30v256q0 18 12 30t30 13h128l43 -43h171zM405 85v86h-106v42q0 9 6 15t15 6t15 -6t6 -15h43q-1 28 -19 46t-45 18t-45 -18t-19 -46v-42h-21v-86h170z" />
    <glyph glyph-name="folder-lock" unicode="folder&#x2d;lock" 
d="M427 320q18 0 30 -12.5t12 -30.5v-213q0 -18 -12 -30t-30 -13h-342q-18 1 -30 13t-12 30v256q0 18 12 30t30 13h128l43 -43h171zM405 85v86h-21v21q-1 27 -19 45t-45 18t-45 -18t-19 -45v-21h-21v-86h170zM320 213q9 0 15 -6t6 -15v-21h-42v21q0 9 6 15t15 6z" />
    <glyph glyph-name="folder-move" unicode="folder&#x2d;move" 
d="M192 64l107 107l-107 106v-64h-85v-85h85v-64zM427 320q18 0 30 -12t12 -31v-213q0 -18 -12 -30t-30 -13h-342q-18 1 -30 13t-12 30v256q0 18 12 30t30 13h128l43 -43h171z" />
    <glyph glyph-name="folder-multiple-image" unicode="folder&#x2d;multiple&#x2d;image" 
d="M149 128h299l-75 96l-53 -64l-75 96zM469 363q18 -1 30.5 -13t12.5 -30v-213q0 -18 -12.5 -30.5t-30.5 -12.5h-341q-18 0 -30 12.5t-13 30.5v256q1 18 13 30t30 12h128l43 -42h170zM43 320v-299h384v-42h-384q-18 0 -30.5 12t-12.5 30v299h43z" />
    <glyph glyph-name="folder-multiple-outline" unicode="folder&#x2d;multiple&#x2d;outline" 
d="M469 363q18 -1 30.5 -13t12.5 -30v-213q0 -18 -12.5 -30.5t-30.5 -12.5h-341q-18 0 -30 12.5t-13 30.5v256q1 18 13 30t30 12h128l43 -42h170zM43 320v-299h384v-42h-384q-18 0 -30.5 12t-12.5 30v299h43zM128 320v-213h341v213h-341z" />
    <glyph glyph-name="folder-multiple" unicode="folder&#x2d;multiple" 
d="M469 363q18 -1 30.5 -13t12.5 -30v-213q0 -18 -12.5 -30.5t-30.5 -12.5h-341q-18 0 -30 12.5t-13 30.5v256q1 18 13 30t30 12h128l43 -42h170zM43 320v-299h384v-42h-384q-18 0 -30.5 12t-12.5 30v299h43z" />
    <glyph glyph-name="folder-outline" unicode="folder&#x2d;outline" 
d="M427 64v213h-342v-213h342zM427 320q18 0 30 -12t12 -31v-213q0 -18 -12 -30t-30 -13h-342q-18 1 -30 13t-12 30v256q0 18 12 30t30 13h128l43 -43h171z" />
    <glyph glyph-name="folder-plus" unicode="folder&#x2d;plus" 
d="M213 363l43 -43h171q18 0 30 -12.5t12 -30.5v-213q0 -18 -12 -30t-30 -13h-342q-18 1 -30 13t-12 30v256q0 18 12 30t30 13h128zM320 256v-64h-64v-43h64v-64h43v64h64v43h-64v64h-43z" />
    <glyph glyph-name="folder-remove" unicode="folder&#x2d;remove" 
d="M213 363l43 -43h171q18 0 30 -12.5t12 -30.5v-213q0 -18 -12 -30t-30 -13h-342q-18 1 -30 13t-12 30v256q0 18 12 30t30 13h128zM266 216l45 -45l-45 -46l30 -30l45 46l46 -46l30 30l-46 46l46 45l-30 30l-46 -45l-45 45z" />
    <glyph glyph-name="folder-upload" unicode="folder&#x2d;upload" 
d="M427 320q18 0 30 -12.5t12 -30.5v-213q0 -18 -12 -30t-30 -13h-342q-18 1 -30 13t-12 30v256q0 18 12 30t30 13h128l43 -43h171zM229 171h70v-86h42v86h70l-91 90z" />
    <glyph glyph-name="folder" unicode="folder" 
d="M213 363l43 -43h171q18 0 30 -12t12 -31v-213q0 -18 -12 -30t-30 -13h-342q-18 1 -30 13t-12 30v256q0 18 12 30t30 13h128z" />
    <glyph glyph-name="format-list-bulleted" unicode="format&#x2d;list&#x2d;bulleted" 
d="M149 341h299v-42h-299v42zM149 171v42h299v-42h-299zM149 43v42h299v-42h-299zM85 92q12 0 20 -8t8 -20t-8 -20t-20 -8t-20 8t-8 20t8 20t20 8zM85 352q14 0 23 -9t9 -23t-9 -23t-22.5 -9t-22.5 9t-9 23t9 23t22 9zM85 224q14 0 23 -9t9 -23t-9 -23t-22.5 -9t-22.5 9
t-9 23t9 23t22 9z" />
    <glyph glyph-name="format-list-numbers" unicode="format&#x2d;list&#x2d;numbers" 
d="M149 171v42h299v-42h-299zM149 43v42h299v-42h-299zM149 299v42h299v-42h-299zM43 213v22h64v-20l-39 -44h39v-22h-64v20l38 44h-38zM64 277v64h-21v22h42v-86h-21zM43 85v22h64v-86h-64v22h42v10h-21v22h21v10h-42z" />
    <glyph glyph-name="format-quote" unicode="format&#x2d;quote" 
d="M299 85l42 86h-64v128h128v-128l-42 -86h-64zM128 85l43 86h-64v128h128v-128l-43 -86h-64z" />
    <glyph glyph-name="forum" unicode="forum" 
d="M363 192q-1 -9 -7 -15t-15 -6h-213l-85 -86v299q0 9 6 15t15 6h277q9 0 15 -6t7 -15v-192zM448 320q9 0 15 -6t6 -15v-320l-85 85h-235q-9 0 -15 6t-6 15v43h277v192h43z" />
    <glyph glyph-name="forward" unicode="forward" 
d="M256 277v86l171 -171l-171 -171v86h-171v170h171z" />
    <glyph glyph-name="fullscreen-exit" unicode="fullscreen&#x2d;exit" 
d="M299 149h106v-42h-64v-64h-42v106zM107 149h106v-106h-42v64h-64v42zM171 341h42v-106h-106v42h64v64zM405 277v-42h-106v106h42v-64h64z" />
    <glyph glyph-name="fullscreen" unicode="fullscreen" 
d="M107 341h106v-42h-64v-64h-42v106zM299 341h106v-106h-42v64h-64v42zM363 149h42v-106h-106v42h64v64zM213 85v-42h-106v106h42v-64h64z" />
    <glyph glyph-name="git" unicode="git" 
d="M55 222l124 124l36 -37q-4 -14 1.5 -27t18.5 -20v-118q-10 -6 -16 -15.5t-6 -21.5q1 -18 13 -30.5t30 -12.5t30 12.5t13 30.5q0 12 -6 21.5t-16 15.5v103l44 -44q-1 -5 -1 -11q0 -18 12.5 -30t30.5 -12t30 12t12 30t-12 30t-30 13q-6 0 -11 -2l-55 55q4 15 -2.5 29
t-21 20t-28.5 3l-36 36l17 17q13 12 30 12t30 -12l171 -171q12 -13 12 -30t-12 -30l-171 -171q-13 -12 -30 -12t-30 12l-171 171q-12 13 -12 30t12 30z" />
    <glyph glyph-name="harddisk" unicode="harddisk" 
d="M128 405h256q18 0 30 -12t13 -30v-342q-1 -18 -13 -30t-30 -12h-256q-18 0 -30 12t-13 30v342q1 18 13 30t30 12zM256 363q-54 -2 -90.5 -38t-37.5 -90q1 -55 37.5 -91t92.5 -37l-19 47q-4 8 -2 16.5t10 12.5l19 11q8 4 16 2t13 -10l41 -51q22 17 35 43t13 57
q-1 54 -37.5 90t-90.5 38zM256 256q9 0 15 -6t6 -15t-6 -15t-15 -6t-15 6t-6 15t6 15t15 6zM149 64q-9 0 -15 -6t-6 -15t6 -15t15 -6t15 6t6 15t-6 15t-15 6zM258 165l53 -135l55 32l-90 114z" />
    <glyph glyph-name="headphones-box" unicode="headphones&#x2d;box" 
d="M154 64h59v85h-42v43q1 36 25 60t60 24t60 -24t25 -60v-43h-42v-85h59q11 0 18.5 7.5t7.5 18.5v102q-1 54 -37.5 90.5t-90.5 37.5q-54 -1 -90.5 -37.5t-37.5 -90.5v-102q0 -11 7.5 -18.5t18.5 -7.5zM405 384q18 0 30.5 -12t12.5 -31v-298q0 -18 -12.5 -30.5t-30.5 -12.5
h-298q-18 0 -30.5 12.5t-12.5 30.5v298q0 19 12 31t31 12h298z" />
    <glyph glyph-name="headphones" unicode="headphones" 
d="M256 427q82 -2 136 -56t56 -136v-150q-1 -27 -19 -45t-45 -19h-64v171h85v43q-1 63 -43 105t-106 44q-64 -2 -106 -44t-43 -105v-43h85v-171h-64q-27 1 -45 19t-19 45v150q2 82 56 136t136 56z" />
    <glyph glyph-name="headset-off" unicode="headset&#x2d;off" 
d="M480 346l-44 -44q12 -32 12 -67v-214q-1 -27 -19 -45t-45 -19h-128v43h149v21h-85v165l-128 -128v-37h-37l-53 -53l-27 27l378 378zM256 427q41 -1 76 -16t62 -42l-30 -31q-21 22 -48.5 34t-59.5 12q-64 -2 -106 -44t-43 -105v-43h85v-25l-117 -117q-11 15 -11 35v150
q2 81 56 135.5t136 56.5zM405 192v43q0 17 -3 33l-76 -76h79z" />
    <glyph glyph-name="headset" unicode="headset" 
d="M256 427q82 -2 136 -56t56 -136v-214q-1 -27 -19 -45t-45 -19h-128v43h149v21h-85v171h85v43q-1 63 -43 105t-106 44q-64 -2 -106 -44t-43 -105v-43h85v-171h-64q-27 1 -45 19t-19 45v150q2 82 56 136t136 56z" />
    <glyph glyph-name="heart-box-outline" unicode="heart&#x2d;box&#x2d;outline" 
d="M256 85l-15 14q-42 37 -66.5 65.5t-25.5 58.5q1 25 17.5 41.5t41.5 16.5q14 0 26.5 -6t21.5 -16q9 10 21.5 16t26.5 6q25 0 41.5 -16.5t17.5 -41.5q-1 -30 -25.5 -58.5t-66.5 -65.5zM107 384h298q18 0 30.5 -12.5t12.5 -30.5v-298q0 -18 -12.5 -30.5t-30.5 -12.5h-298
q-18 0 -30.5 12.5t-12.5 30.5v298q0 18 12.5 30.5t30.5 12.5zM107 341v-298h298v298h-298z" />
    <glyph glyph-name="heart-box" unicode="heart&#x2d;box" 
d="M107 384h298q18 0 30.5 -12.5t12.5 -30.5v-298q0 -18 -12.5 -30.5t-30.5 -12.5h-298q-18 0 -30.5 12.5t-12.5 30.5v298q0 18 12.5 30.5t30.5 12.5zM256 85l15 14q42 37 66.5 65.5t25.5 58.5q-1 25 -17.5 41.5t-41.5 16.5q-14 0 -26.5 -6t-21.5 -16q-9 10 -21.5 16
t-26.5 6q-25 0 -41.5 -16.5t-17.5 -41.5q1 -30 25.5 -58.5t66.5 -65.5z" />
    <glyph glyph-name="heart-outline" unicode="heart&#x2d;outline" 
d="M258 52q77 68 122.5 118.5t46.5 96.5q-1 32 -21.5 53t-53.5 21q-25 0 -46 -14t-30 -36h-40q-9 22 -30 36t-46 14q-33 0 -53.5 -21t-21.5 -53q1 -46 46.5 -96.5t122.5 -118.5l2 -2zM352 384q50 -1 83 -34t34 -83q-1 -59 -50 -116t-132 -130l-31 -28l-31 28
q-83 73 -132 130t-50 116q1 50 34 83t83 34q28 0 53 -12t43 -32q18 20 43 32t53 12z" />
    <glyph glyph-name="heart" unicode="heart" 
d="M256 -7l-31 28q-83 73 -132 130t-50 116q1 50 34 83t83 34q28 0 53 -12t43 -32q18 20 43 32t53 12q50 -1 83 -34t34 -83q-1 -59 -50 -116t-132 -130z" />
    <glyph glyph-name="help-circle" unicode="help&#x2d;circle" 
d="M321 208q20 19 20 48q-1 36 -25 60t-60 24t-60 -24t-25 -60h42q1 18 13 30t30 12t30 -12t12 -30t-12 -30l-26 -27q-24 -24 -25 -60v-11h42q0 23 7 36.5t18 23.5zM277 43v42h-42v-42h42zM256 405q90 -2 150.5 -62t62.5 -151q-2 -91 -62 -151t-151 -62q-91 2 -151 62
t-62 151q2 91 62 151t151 62z" />
    <glyph glyph-name="help" unicode="help" 
d="M213 43h64v-64h-64v64zM256 405q54 -1 90.5 -37t37.5 -91q-5 -21 -12 -41.5t-20.5 -36.5t-31 -28t-28.5 -25.5t-13 -29t-2 -31.5h-64q0 27 2 49t13 38t28.5 27t31 21.5t20.5 25.5t12 31q-1 28 -19 46t-45 18t-45 -18t-19 -46h-64q1 55 37.5 91t90.5 37z" />
    <glyph glyph-name="history" unicode="history" 
d="M235 299h32v-91l85 -51l-17 -27l-100 60v109zM267 405q86 -2 143 -59t59 -143q-2 -86 -59 -143.5t-143 -59.5q-72 1 -124.5 42.5t-71.5 106.5h45q17 -47 57.5 -76t93.5 -30q68 1 113 46.5t47 113.5q-2 68 -47 113t-113 47q-49 -1 -86.5 -25.5t-57.5 -65.5l58 -59h-138
v139l48 -48q27 46 73 73.5t103 27.5z" />
    <glyph glyph-name="home" unicode="home" 
d="M213 21h-106v171h-64l213 192l213 -192h-64v-171h-106v128h-86v-128z" />
    <glyph glyph-name="human-male-female" unicode="human&#x2d;male&#x2d;female" 
d="M160 405q18 0 30 -12t12 -30t-12 -30.5t-30 -12.5t-30 12.5t-12 30.5t12 30t30 12zM128 299h64q18 -1 30 -13t13 -30v-117h-32v-160h-86v160h-32v117q1 18 13 30t30 13zM352 405q18 0 30 -12t12 -30t-12 -30.5t-30 -12.5t-30 12.5t-12 30.5t12 30t30 12zM320 -21v128h-64
l55 162q5 13 15.5 21t25.5 8t26 -8t15 -21l55 -162h-64v-128h-64z" />
    <glyph glyph-name="human" unicode="human" 
d="M448 256h-128v-277h-43v128h-42v-128h-43v277h-128v43h384v-43zM256 405q18 0 30 -12t12 -30t-12 -30.5t-30 -12.5t-30 12.5t-12 30.5t12 30t30 12z" />
    <glyph glyph-name="image-area" unicode="image&#x2d;area" 
d="M427 341q18 0 30 -12t12 -30v-214q0 -18 -12 -30t-30 -12h-342q-18 0 -30 12t-12 30v214q0 18 12 30t30 12h342zM107 107h298l-96 128l-74 -96l-54 64z" />
    <glyph glyph-name="image-broken" unicode="image&#x2d;broken" 
d="M405 384q18 0 30.5 -12.5t12.5 -30.5v-128h-43v-42h-42v-43h-43v-43h-43v-42h-42v-43h-128q-19 0 -31 12.5t-12 30.5v298q0 18 12.5 30.5t30.5 12.5h298zM448 128v-85q0 -18 -12.5 -30.5t-30.5 -12.5h-85v43h43v42h42v43h43zM405 267q-1 9 -10 10h-278q-9 -1 -10 -10
v-150q1 -9 10 -10h118v21h42v43h43v42h43v43h42v11z" />
    <glyph glyph-name="image-filter-center-focus" unicode="image&#x2d;filter&#x2d;center&#x2d;focus" 
d="M256 256q27 -1 45 -19t18 -45t-18 -45t-45 -18t-45 18t-18 45t18 45t45 19zM405 43v85h43v-85q0 -18 -12.5 -30.5t-30.5 -12.5h-85v43h85zM405 384q18 0 30.5 -12.5t12.5 -30.5v-85h-43v85h-85v43h85zM107 341v-85h-43v85q0 18 12.5 30.5t30.5 12.5h85v-43h-85zM107 128
v-85h85v-43h-85q-18 0 -30.5 12.5t-12.5 30.5v85h43z" />
    <glyph glyph-name="image-filter-none" unicode="image&#x2d;filter&#x2d;none" 
d="M448 85v299h-299v-299h299zM448 427q18 -1 30 -13t13 -30v-299q-1 -18 -13 -30t-30 -12h-299q-18 0 -30 12t-12 30v299q0 18 12 30t30 13h299zM64 341v-341h341v-43h-341q-18 1 -30 13t-13 30v341h43z" />
    <glyph glyph-name="import" unicode="import" 
d="M299 192l-86 -85v64h-170v42h170v64zM427 64q-1 -18 -13 -30t-30 -13h-256q-18 1 -30 13t-13 30v64h43v-64h256v256h-256v-64h-43v64q1 18 13 30t30 13h256q18 -1 30 -13t13 -30v-256z" />
    <glyph glyph-name="inbox" unicode="inbox" 
d="M341 235l-85 -86l-85 86h42v64h86v-64h42zM405 128v213h-298v-213h85q1 -27 19 -45t45 -18t45 18t19 45h85zM405 384q18 0 30.5 -12.5t12.5 -30.5v-298q0 -18 -12.5 -30.5t-30.5 -12.5h-298q-18 0 -30.5 12.5t-12.5 30.5v298q0 18 12 30.5t31 12.5h298z" />
    <glyph glyph-name="information-outline" unicode="information&#x2d;outline" 
d="M235 256v43h42v-43h-42zM256 21q72 2 120.5 50.5t50.5 120.5q-2 72 -50.5 120.5t-120.5 50.5q-72 -2 -120.5 -50.5t-50.5 -120.5q2 -72 50.5 -120.5t120.5 -50.5zM256 405q91 -2 151 -62t62 -151q-2 -91 -62 -151t-151 -62q-91 2 -151 62t-62 151q2 91 62 151t151 62z
M235 85v128h42v-128h-42z" />
    <glyph glyph-name="information" unicode="information" 
d="M277 256v43h-42v-43h42zM277 85v128h-42v-128h42zM256 405q91 -2 151 -62t62 -151q-2 -91 -62 -151t-151 -62q-91 2 -151 62t-62 151q2 91 62 151t151 62z" />
    <glyph glyph-name="invert-colors" unicode="invert&#x2d;colors" 
d="M256 30v309l-90 -90q-19 -19 -28.5 -42t-9.5 -49q1 -53 38 -90q18 -19 41 -28.5t49 -9.5zM377 279q50 -53 50 -121t-50 -120q-26 -25 -57 -37.5t-64 -12.5t-64 12.5t-57 37.5q-50 52 -50 120t50 121l121 121z" />
    <glyph glyph-name="key-change" unicode="key&#x2d;change" 
d="M139 405q32 0 56 -17.5t34 -46.5h240v-64h-85v-64h-64v64h-91q-10 -28 -34 -45.5t-56 -18.5q-41 1 -68 28t-27 68t27 68t68 28zM139 341q-14 0 -23 -9t-9 -22.5t9 -22.5t22.5 -9t22.5 9t9 22.5t-9 22.5t-22 9zM139 171q32 -1 56 -18.5t34 -45.5h240v-64h-42v-64h-43v64
h-43v-64h-64v64h-48q-10 -29 -34 -46.5t-56 -17.5q-41 1 -68 28t-27 68t27 68t68 28zM139 107q-14 -1 -23 -10t-9 -22.5t9 -22.5t22.5 -9t22.5 9t9 22.5t-9 22.5t-22 10z" />
    <glyph glyph-name="key-minus" unicode="key&#x2d;minus" 
d="M139 384q32 0 56 -17.5t34 -46.5h240v-64h-85v-64h-64v64h-91q-10 -28 -34 -45.5t-56 -18.5q-41 1 -68 28t-27 68t27 68t68 28zM139 320q-14 0 -23 -9t-9 -23t9 -23t22.5 -9t22.5 9t9 23t-9 23t-22 9zM171 85h170v-42h-170v42z" />
    <glyph glyph-name="key-plus" unicode="key&#x2d;plus" 
d="M139 384q32 0 56 -17.5t34 -46.5h240v-64h-85v-64h-64v64h-91q-10 -28 -34 -45.5t-56 -18.5q-41 1 -68 28t-27 68t27 68t68 28zM139 320q-14 0 -23 -9t-9 -23t9 -23t22.5 -9t22.5 9t9 23t-9 23t-22 9zM171 85h64v64h42v-64h64v-42h-64v-64h-42v64h-64v42z" />
    <glyph glyph-name="key-remove" unicode="key&#x2d;remove" 
d="M139 384q32 0 56 -17.5t34 -46.5h240v-64h-85v-64h-64v64h-91q-10 -28 -34 -45.5t-56 -18.5q-41 1 -68 28t-27 68t27 68t68 28zM139 320q-14 0 -23 -9t-9 -23t9 -23t22.5 -9t22.5 9t9 23t-9 23t-22 9zM311 149l30 -30l-55 -55l55 -55l-30 -30l-55 55l-55 -55l-30 30
l55 55l-55 55l30 30l55 -55z" />
    <glyph glyph-name="key" unicode="key" 
d="M149 149q18 1 30.5 13t12.5 30t-12.5 30t-30.5 12t-30 -12t-12 -30t12 -30t30 -13zM270 235h221v-86h-43v-85h-85v85h-93q-14 -38 -46 -61t-75 -24q-54 1 -90 37.5t-38 90.5q2 54 38 90.5t90 37.5q43 -1 75 -24t46 -61z" />
    <glyph glyph-name="keyboard-backspace" unicode="keyboard&#x2d;backspace" 
d="M448 213v-42h-302l76 -77l-30 -30l-128 128l128 128l30 -30l-76 -77h302z" />
    <glyph glyph-name="keyboard-caps" unicode="keyboard&#x2d;caps" 
d="M128 64v43h256v-43h-256zM256 269l-98 -98l-30 30l128 128l128 -128l-30 -30z" />
    <glyph glyph-name="keyboard-off" unicode="keyboard&#x2d;off" 
d="M21 357l28 27l378 -378l-27 -27l-64 64h-251q-18 0 -30 12t-12 30v214q0 16 9 27zM405 235v42h-42v-42h42zM405 171v42h-42v-42h42zM341 235v42h-42v-42h42zM341 171v42h-42v-25l-47 47h25v42h-42v-25l-90 89h282q18 0 30 -12t12 -30v-214q0 -14 -7.5 -24.5t-19.5 -15.5
l-126 126h25zM171 128v-43h122l-43 43h-79zM107 235h37l-37 37v-37zM149 171v42h-42v-42h42zM171 171h37l-37 37v-37z" />
    <glyph glyph-name="keyboard-return" unicode="keyboard&#x2d;return" 
d="M405 299h43v-128h-324l77 -77l-30 -30l-128 128l128 128l30 -30l-77 -77h281v86z" />
    <glyph glyph-name="keyboard-tab" unicode="keyboard&#x2d;tab" 
d="M427 64v256h42v-256h-42zM247 290l30 30l128 -128l-128 -128l-30 30l77 77h-303v42h303z" />
    <glyph glyph-name="keyboard" unicode="keyboard" 
d="M405 235v42h-42v-42h42zM405 171v42h-42v-42h42zM341 235v42h-42v-42h42zM341 171v42h-42v-42h42zM341 85v43h-170v-43h170zM149 235v42h-42v-42h42zM149 171v42h-42v-42h42zM171 213v-42h42v42h-42zM171 277v-42h42v42h-42zM235 213v-42h42v42h-42zM235 277v-42h42v42
h-42zM427 341q18 0 30 -12t12 -30v-214q0 -18 -12 -30t-30 -12h-342q-18 0 -30 12t-12 30v214q0 18 12 30t30 12h342z" />
    <glyph glyph-name="label-outline" unicode="label&#x2d;outline" 
d="M341 85l76 107l-76 107h-234v-214h234zM376 323l93 -131l-93 -131q-12 -17 -35 -18h-234q-18 0 -30.5 12t-12.5 30v214q0 18 12.5 30t30.5 12h234q23 0 35 -18z" />
    <glyph glyph-name="label" unicode="label" 
d="M376 323l93 -131l-93 -131q-12 -17 -35 -18h-234q-18 0 -30.5 12t-12.5 30v214q0 18 12.5 30t30.5 12h234q23 0 35 -18z" />
    <glyph glyph-name="lan-connect" unicode="lan&#x2d;connect" 
d="M85 427h128q19 -1 31 -13t12 -30v-85q0 -19 -12 -31t-31 -12h64v-43h-256v43h64q-18 0 -30 12t-12 31v85q0 18 12 30t30 13zM85 384v-85h128v85h-128zM64 171h43v-107h106v-43h-149v150zM299 171h128q18 -1 30 -13t12 -30v-85q0 -19 -12 -31t-30 -12h64v-43h-256v43h64
q-19 0 -31 12t-12 31v85q0 18 12 30t31 13zM299 128v-85h128v85h-128z" />
    <glyph glyph-name="lan-disconnect" unicode="lan&#x2d;disconnect" 
d="M85 427h128q19 -1 31 -13t12 -30v-85q0 -19 -12 -31t-31 -12h64v-43h-256v43h64q-18 0 -30 12t-12 31v85q0 18 12 30t30 13zM85 384v-85h128v85h-128zM299 171h128q18 -1 30 -13t12 -30v-85q0 -19 -12 -31t-30 -12h64v-43h-256v43h64q-19 0 -31 12t-12 31v85q0 18 12 30
t31 13zM83 161l45 -46l45 46l31 -30l-46 -46l46 -45l-31 -30l-45 45l-45 -45l-31 30l46 45l-46 46zM299 128v-85h128v85h-128z" />
    <glyph glyph-name="lan-pending" unicode="lan&#x2d;pending" 
d="M85 427h128q19 -1 31 -13t12 -30v-85q0 -19 -12 -31t-31 -12h64v-43h-256v43h64q-18 0 -30 12t-12 31v85q0 18 12 30t30 13zM85 384v-85h128v85h-128zM64 192h43v-43h-43v43zM299 171h128q18 -1 30 -13t12 -30v-85q0 -19 -12 -31t-30 -12h64v-43h-256v43h64q-19 0 -31 12
t-12 31v85q0 18 12 30t31 13zM64 128h43v-43h-43v43zM299 128v-85h128v85h-128zM64 64h43v-43h-43v43zM128 64h43v-43h-43v43zM192 64h43v-43h-43v43z" />
    <glyph glyph-name="lan" unicode="lan" 
d="M213 405h86q18 0 30 -12t12 -30v-64q0 -19 -12 -31t-30 -12h-22v-43h192v-42h-85v-43h21q19 0 31 -12t12 -31v-64q0 -18 -12 -30t-31 -12h-85q-18 0 -30 12t-13 30v64q1 19 13 31t30 12h21v43h-170v-43h21q18 0 30 -12t13 -31v-64q-1 -18 -13 -30t-30 -12h-85
q-19 0 -31 12t-12 30v64q0 19 12 31t31 12h21v43h-85v42h192v43h-22q-18 0 -30 12t-12 31v64q0 18 12 30t30 12zM213 363v-64h86v64h-86zM107 85v-64h85v64h-85zM320 85v-64h85v64h-85z" />
    <glyph glyph-name="language-css3" unicode="language&#x2d;css&#x33;" 
d="M107 384h361l-64 -320l-193 -64l-167 64l17 85h71l-7 -35l101 -38l117 38l16 82h-289l14 71h289l10 46h-290z" />
    <glyph glyph-name="language-html5" unicode="language&#x2d;html&#x35;" 
d="M256 73l87 24l12 131h-155l-4 43h162l5 42h-214l12 -128h147l-5 -55l-47 -13l-47 13l-3 36h-43l6 -69zM87 384h338l-30 -346l-139 -38l-139 38z" />
    <glyph glyph-name="language-javascript" unicode="language&#x2d;javascript" 
d="M64 384h384v-384h-384v384zM165 63q6 -14 19.5 -23.5t34.5 -9.5q24 0 39 13.5t15 40.5v124h-36v-123q0 -13 -5.5 -18t-14 -4.5t-14 5.5t-9.5 13zM292 67q8 -16 24.5 -26.5t42.5 -10.5t42.5 13t16.5 37q0 22 -12.5 35t-35.5 22l-9 4q-11 5 -16.5 9.5t-5.5 12.5
q1 14 16.5 15t24.5 -15l27 18q-17 30 -51 29q-24 -1 -38 -14t-14 -34.5t11.5 -33.5t31.5 -20l9 -4q12 -5 19 -10t7 -13.5t-6.5 -13.5t-19 -5t-20.5 6t-14 16z" />
    <glyph glyph-name="laptop" unicode="laptop" 
d="M85 320v-213h342v213h-342zM427 64h85v-43h-512v43h85q-18 0 -30 12.5t-12 30.5v213q0 18 12 30t30 13h342q18 -1 30 -13t12 -30v-213q0 -18 -12 -30.5t-30 -12.5z" />
    <glyph glyph-name="launch" unicode="launch" 
d="M299 384h149v-149h-43v76l-209 -209l-30 30l209 209h-76v43zM405 43v149h43v-149q0 -18 -12.5 -30.5t-30.5 -12.5h-298q-18 0 -30.5 12.5t-12.5 30.5v298q0 19 12 31t31 12h149v-43h-149v-298h298z" />
    <glyph glyph-name="layers-off" unicode="layers&#x2d;off" 
d="M70 427l399 -400l-27 -27l-80 81l-106 -82l-192 149l35 27l157 -123l75 59l-30 30l-45 -34l-192 149l69 53l-90 91zM413 229l-51 -40l-168 168l62 48l192 -149zM423 128l-31 31l25 19l31 -30z" />
    <glyph glyph-name="layers" unicode="layers" 
d="M256 107l-157 122l-35 27l192 149l192 -149l-35 -27zM256 52l157 123l35 -27l-192 -149l-192 149l35 27z" />
    <glyph glyph-name="lightbulb-outline" unicode="lightbulb&#x2d;outline" 
d="M256 405q64 -1 106 -43t43 -106q0 -38 -17 -70t-47 -52v-49q0 -9 -6 -15t-15 -6h-128q-9 0 -15 6t-6 15v49q-30 20 -47 52t-17 70q1 64 43 106t106 43zM192 0v21h128v-21q0 -9 -6 -15t-15 -6h-86q-9 0 -15 6t-6 15zM256 363q-45 -1 -75.5 -31.5t-31.5 -75.5
q1 -33 18.5 -59t45.5 -39v-51h86v51q28 13 45.5 39t18.5 59q-1 45 -31.5 75.5t-75.5 31.5z" />
    <glyph glyph-name="lightbulb" unicode="lightbulb" 
d="M256 405q64 -1 106 -43t43 -106q0 -38 -17 -70t-47 -52v-49q0 -9 -6 -15t-15 -6h-128q-9 0 -15 6t-6 15v49q-30 20 -47 52t-17 70q1 64 43 106t106 43zM192 0v21h128v-21q0 -9 -6 -15t-15 -6h-86q-9 0 -15 6t-6 15z" />
    <glyph glyph-name="link-off" unicode="link&#x2d;off" 
d="M43 336l27 27l357 -357l-27 -27l-86 85h-37v37l-69 70h-37v37l-54 53q-16 -12 -25 -30t-9 -39q1 -37 26 -62t62 -25h64v-41h-64q-55 1 -91 37.5t-37 90.5q0 30 12 55t33 43zM341 320q55 -1 91 -37.5t37 -90.5q0 -36 -17 -65t-47 -46l-30 31q24 10 38.5 31t15.5 49
q-1 37 -26 62t-62 25h-64v41h64zM171 320h64v-41h-28l-40 41h4zM341 213v-42h-25l-43 42h68z" />
    <glyph glyph-name="link" unicode="link" 
d="M341 320q55 -1 91 -37.5t37 -90.5q-1 -54 -37 -90.5t-91 -37.5h-64v41h64q37 0 62 25t25 62t-25 62t-62 25h-64v41h64zM83 192q1 -37 26 -62t62 -25h64v-41h-64q-55 1 -91 37.5t-37 90.5q1 54 37 90.5t91 37.5h64v-41h-64q-37 0 -62 -25t-26 -62zM171 171v42h170v-42
h-170z" />
    <glyph glyph-name="lock-open-outline" unicode="lock&#x2d;open&#x2d;outline" 
d="M384 21v214h-256v-214h256zM384 277q18 0 30 -12t13 -30v-214q-1 -18 -13 -30t-30 -12h-256q-18 0 -30 12t-13 30v214q1 18 13 30t30 12h192v43q-1 27 -19 45t-45 18t-45 -18t-19 -45h-43q1 45 31.5 75.5t75.5 31.5q45 -1 75.5 -31.5t31.5 -75.5v-43h21zM256 85
q-18 1 -30 13t-12 30t12 30t30 12t30 -12t12 -30t-12 -30t-30 -13z" />
    <glyph glyph-name="lock-open" unicode="lock&#x2d;open" 
d="M384 277q18 0 30 -12t13 -30v-214q-1 -18 -13 -30t-30 -12h-256q-18 0 -30 12t-13 30v214q1 18 13 30t30 12h192v43q-1 27 -19 45t-45 18t-45 -18t-19 -45h-43q1 45 31.5 75.5t75.5 31.5q45 -1 75.5 -31.5t31.5 -75.5v-43h21zM256 85q18 1 30 13t12 30t-12 30t-30 12
t-30 -12t-12 -30t12 -30t30 -13z" />
    <glyph glyph-name="lock-outline" unicode="lock&#x2d;outline" 
d="M256 85q-18 1 -30 13t-12 30t12 30t30 12t30 -12t12 -30t-12 -30t-30 -13zM384 21v214h-256v-214h256zM384 277q18 0 30 -12t13 -30v-214q-1 -18 -13 -30t-30 -12h-256q-18 0 -30 12t-13 30v214q1 18 13 30t30 12h21v43q1 45 31.5 75.5t75.5 31.5q45 -1 75.5 -31.5
t31.5 -75.5v-43h21zM256 384q-27 -1 -45 -19t-19 -45v-43h128v43q-1 27 -19 45t-45 19z" />
    <glyph glyph-name="lock" unicode="lock" 
d="M256 85q18 1 30 13t12 30t-12 30t-30 12t-30 -12t-12 -30t12 -30t30 -13zM384 277q18 0 30 -12t13 -30v-214q-1 -18 -13 -30t-30 -12h-256q-18 0 -30 12t-13 30v214q1 18 13 30t30 12h21v43q1 45 31.5 75.5t75.5 31.5q45 -1 75.5 -31.5t31.5 -75.5v-43h21zM256 384
q-27 -1 -45 -19t-19 -45v-43h128v43q-1 27 -19 45t-45 19z" />
    <glyph glyph-name="login" unicode="login" 
d="M213 80v69h-149v86h149v69l112 -112zM171 405h192q18 0 30 -12t12 -30v-342q0 -18 -12 -30t-30 -12h-192q-18 0 -30.5 12t-12.5 30v86h43v-86h192v342h-192v-86h-43v86q0 18 12.5 30t30.5 12z" />
    <glyph glyph-name="logout" unicode="logout" 
d="M363 80v69h-150v86h150v69l112 -112zM277 405q18 0 30.5 -12t12.5 -30v-86h-43v86h-192v-342h192v86h43v-86q0 -18 -12.5 -30t-30.5 -12h-192q-18 0 -30 12t-12 30v342q0 18 12 30t30 12h192z" />
    <glyph glyph-name="magnify-minus" unicode="magnify&#x2d;minus" 
d="M192 405q64 -1 106 -43t43 -106q0 -51 -29 -89l17 -18h12l128 -128l-42 -42l-128 128v12l-18 17q-38 -29 -89 -29q-64 1 -106 43t-43 106q1 64 43 106t106 43zM107 277v-42h170v42h-170z" />
    <glyph glyph-name="magnify-plus" unicode="magnify&#x2d;plus" 
d="M192 405q64 -1 106 -43t43 -106q0 -51 -29 -89l17 -18h12l128 -128l-42 -42l-128 128v12l-18 17q-38 -29 -89 -29q-64 1 -106 43t-43 106q1 64 43 106t106 43zM171 341v-64h-64v-42h64v-64h42v64h64v42h-64v64h-42z" />
    <glyph glyph-name="magnify" unicode="magnify" 
d="M203 384q59 -1 98 -40.5t40 -98.5q0 -26 -8.5 -49t-24.5 -41l6 -6h17l106 -106l-32 -32l-106 106v17l-6 6q-18 -16 -41 -24.5t-49 -8.5q-59 1 -98.5 40t-40.5 98q1 59 40.5 98.5t98.5 40.5zM203 341q-41 -1 -68 -28t-27 -68t27 -68t68 -27t68 27t27 68t-27 68t-68 28z
" />
    <glyph glyph-name="menu-down" unicode="menu&#x2d;down" 
d="M149 235h214l-107 -107z" />
    <glyph glyph-name="menu-left" unicode="menu&#x2d;left" 
d="M299 299v-214l-107 107z" />
    <glyph glyph-name="menu-right" unicode="menu&#x2d;right" 
d="M213 85v214l107 -107z" />
    <glyph glyph-name="menu-up" unicode="menu&#x2d;up" 
d="M149 128l107 107l107 -107h-214z" />
    <glyph glyph-name="menu" unicode="menu" 
d="M64 320h384v-43h-384v43zM64 213h384v-42h-384v42zM64 107h384v-43h-384v43z" />
    <glyph glyph-name="message-alert" unicode="message&#x2d;alert" 
d="M277 235v85h-42v-85h42zM277 149v43h-42v-43h42zM427 405q18 0 30 -12t12 -30v-256q0 -18 -12 -30.5t-30 -12.5h-299l-85 -85v384q0 18 12 30t30 12h342z" />
    <glyph glyph-name="message-draw" unicode="message&#x2d;draw" 
d="M384 149v43h-117l-43 -43h160zM128 149h53l146 147q7 8 0 15l-37 38q-8 6 -15 0l-147 -146v-54zM427 405q18 0 30 -12t12 -30v-256q0 -18 -12 -30.5t-30 -12.5h-299l-85 -85v384q0 18 12 30t30 12h342z" />
    <glyph glyph-name="message-image" unicode="message&#x2d;image" 
d="M107 149h298l-96 128l-74 -96l-54 64zM427 405q18 0 30 -12t12 -30v-256q0 -18 -12 -30.5t-30 -12.5h-299l-85 -85v384q0 18 12 30t30 12h342z" />
    <glyph glyph-name="message-processing" unicode="message&#x2d;processing" 
d="M363 213v43h-43v-43h43zM277 213v43h-42v-43h42zM192 213v43h-43v-43h43zM427 405q18 0 30 -12t12 -30v-256q0 -18 -12 -30.5t-30 -12.5h-299l-85 -85v384q0 18 12 30t30 12h342z" />
    <glyph glyph-name="message-reply" unicode="message&#x2d;reply" 
d="M469 363v-384l-85 85h-299q-18 0 -30 12.5t-12 30.5v256q0 18 12 30t30 12h342q18 0 30 -12t12 -30z" />
    <glyph glyph-name="message-text-outline" unicode="message&#x2d;text&#x2d;outline" 
d="M427 405q18 0 30 -12t12 -30v-256q0 -18 -12 -30.5t-30 -12.5h-299l-85 -85v384q0 18 12 30t30 12h342zM85 363v-281l25 25h317v256h-342zM128 299h256v-43h-256v43zM128 213h192v-42h-192v42z" />
    <glyph glyph-name="message-text" unicode="message&#x2d;text" 
d="M427 405q18 0 30 -12t12 -30v-256q0 -18 -12 -30.5t-30 -12.5h-299l-85 -85v384q0 18 12 30t30 12h342zM107 341v-42h298v42h-298zM107 256v-43h170v43h-170zM107 171v-43h213v43h-213z" />
    <glyph glyph-name="message-video" unicode="message&#x2d;video" 
d="M384 149v171l-85 -68v68h-171v-171h171v69zM427 405q18 0 30 -12t12 -30v-256q0 -18 -12 -30.5t-30 -12.5h-299l-85 -85v384q0 18 12 30t30 12h342z" />
    <glyph glyph-name="message" unicode="message" 
d="M427 405q18 0 30 -12t12 -30v-256q0 -18 -12 -30.5t-30 -12.5h-299l-85 -85v384q0 18 12 30t30 12h342z" />
    <glyph glyph-name="microphone-off" unicode="microphone&#x2d;off" 
d="M405 213q0 -38 -19 -70l-26 27q9 20 9 43h36zM320 210l-128 127v4q1 28 19 46t45 18t45 -18t19 -46v-131zM91 384l357 -357l-27 -27l-89 89q-25 -14 -55 -19v-70h-42v70q-54 9 -90.5 48.5t-37.5 94.5h36q1 -48 34 -78t79 -30q26 0 49 11l-35 35l-14 -2q-27 1 -45 19
t-19 45v16l-128 128z" />
    <glyph glyph-name="microphone-outline" unicode="microphone&#x2d;outline" 
d="M369 213h36q-1 -55 -37.5 -94.5t-90.5 -48.5v-70h-42v70q-54 9 -90.5 48.5t-37.5 94.5h36q1 -48 34 -78t79 -30t79 30t34 78zM230 343v-132q1 -11 8 -18t18 -7t18 7t7 18l1 132q-1 11 -8 18.5t-18 7.5t-18 -7.5t-8 -18.5zM256 149q-27 1 -45 19t-19 45v128q1 28 19 46
t45 18t45 -18t19 -46v-128q-1 -27 -19 -45t-45 -19z" />
    <glyph glyph-name="microphone" unicode="microphone" 
d="M256 405q27 0 45 -18t19 -46v-128q-1 -27 -19 -45t-45 -18t-45 18t-19 45v128q1 28 19 46t45 18zM405 213q-1 -57 -36.5 -97.5t-91.5 -50.5v-65h-42v65q-56 10 -91.5 50.5t-36.5 97.5h42q1 -45 31.5 -75t75.5 -31q45 1 75.5 31t31.5 75h42z" />
    <glyph glyph-name="minus-box" unicode="minus&#x2d;box" 
d="M363 171v42h-214v-42h214zM405 384q18 0 30.5 -12t12.5 -31v-298q0 -18 -12.5 -30.5t-30.5 -12.5h-298q-18 0 -30.5 12.5t-12.5 30.5v298q0 19 12 31t31 12h298z" />
    <glyph glyph-name="minus-circle-outline" unicode="minus&#x2d;circle&#x2d;outline" 
d="M256 21q72 2 120.5 50.5t50.5 120.5q-2 72 -50.5 120.5t-120.5 50.5q-72 -2 -120.5 -50.5t-50.5 -120.5q2 -72 50.5 -120.5t120.5 -50.5zM256 405q91 -2 151 -62t62 -151q-2 -91 -62 -151t-151 -62q-91 2 -151 62t-62 151q2 91 62 151t151 62zM149 171v42h214v-42h-214z
" />
    <glyph glyph-name="minus-circle" unicode="minus&#x2d;circle" 
d="M363 171v42h-214v-42h214zM256 405q91 -2 151 -62t62 -151q-2 -91 -62 -151t-151 -62q-91 2 -151 62t-62 151q2 91 62 151t151 62z" />
    <glyph glyph-name="minus-network" unicode="minus&#x2d;network" 
d="M341 213v43h-170v-43h170zM363 384q18 0 30 -12.5t12 -30.5v-213q0 -18 -12 -30t-30 -13h-86v-42h22q9 -1 15 -7t6 -15h149v-42h-149q0 -9 -6 -15t-15 -7h-86q-9 1 -15 7t-6 15h-149v42h149q0 9 6 15t15 7h22v42h-86q-18 1 -30 13t-12 30v213q0 18 12 30.5t30 12.5h214z
" />
    <glyph glyph-name="minus" unicode="minus" 
d="M405 171h-298v42h298v-42z" />
    <glyph glyph-name="monitor-multiple" unicode="monitor&#x2d;multiple" 
d="M469 85v214h-341v-214h341zM469 341q18 0 30.5 -12t12.5 -30v-214q0 -18 -12.5 -30t-30.5 -12h-128v-43h43v-43h-171v43h43v43h-128q-18 0 -30 12t-13 30v214q1 18 13 30t30 12h341zM43 384v-256h-43v256q0 18 12.5 30t30.5 13h384v-43h-384z" />
    <glyph glyph-name="monitor" unicode="monitor" 
d="M448 107v256h-384v-256h384zM448 405q18 0 30 -12t13 -30v-256q-1 -18 -13 -30.5t-30 -12.5h-149v-43h42v-42h-170v42h42v43h-149q-18 0 -30 12.5t-13 30.5v256q1 18 13 30t30 12h384z" />
    <glyph glyph-name="more" unicode="more" 
d="M405 160q14 0 23 9t9 23t-9 23t-22.5 9t-22.5 -9t-9 -23t9 -23t22 -9zM299 160q13 0 22 9t9 23t-9 23t-22.5 9t-22.5 -9t-9 -23t9 -23t23 -9zM192 160q14 0 23 9t9 23t-9 23t-23 9t-23 -9t-9 -23t9 -23t23 -9zM469 384q18 0 30.5 -12t12.5 -31v-298q0 -18 -12.5 -30.5
t-30.5 -12.5h-318q-23 1 -36 19l-115 173l115 173q12 18 34 19h320z" />
    <glyph glyph-name="mouse-off" unicode="mouse&#x2d;off" 
d="M43 336l27 27l357 -357l-27 -27l-27 25q-23 -22 -53 -34t-64 -13q-73 2 -121 50t-50 121v85h80l-43 43h-37q0 17 4 34zM235 425v-169h-4l-107 108q20 25 48.5 41t62.5 20zM427 213v-85q-1 -31 -10 -58l-144 143h154zM277 425q65 -9 106.5 -55.5t43.5 -113.5h-150v169z
" />
    <glyph glyph-name="mouse" unicode="mouse" 
d="M235 425v-169h-150q2 67 43.5 113.5t106.5 55.5zM85 128v85h342v-85q-2 -73 -50 -121t-121 -50q-73 2 -121 50t-50 121zM277 425q65 -9 106.5 -55.5t43.5 -113.5h-150v169z" />
    <glyph glyph-name="movie" unicode="movie" 
d="M384 363h85v-299q0 -18 -12 -30t-30 -13h-342q-18 1 -30 13t-12 30v256q0 18 12 30t30 13h22l42 -86h64l-42 86h42l43 -86h64l-43 86h43l43 -86h64z" />
    <glyph glyph-name="nature-people" unicode="nature&#x2d;people" 
d="M96 213q-14 1 -23 10t-9 22.5t9 22.5t23 9t23 -9t9 -22.5t-9 -22.5t-23 -10zM473 252q-1 -58 -38 -99t-94 -49v-83h64v-42h-341v106h-21v86q0 9 6 15t15 6h64q9 0 15 -6t6 -15v-86h-21v-64h171v84q-54 10 -89 50.5t-36 96.5q2 64 44 106t106 44q63 -2 105 -44t44 -106z
" />
    <glyph glyph-name="nature" unicode="nature" 
d="M277 104v-83h128v-42h-298v42h128v84q-54 10 -89 50.5t-36 96.5q2 64 44 106t106 44q63 -2 105 -44t44 -106q-1 -58 -38 -99t-94 -49z" />
    <glyph glyph-name="newspaper" unicode="newspaper" 
d="M427 213v64h-342v-64h342zM427 171v21h-150v-21h150zM427 128v21h-150v-21h150zM427 85v22h-150v-22h150zM427 43v21h-150v-21h150zM256 43v149h-171v-149h171zM434 348l35 36v-341q0 -18 -12 -30.5t-30 -12.5h-342q-18 0 -30 12.5t-12 30.5v341l35 -36l36 36l35 -36
l36 36l35 -36l36 36l36 -36l35 36l36 -36l35 36z" />
    <glyph glyph-name="note-outline" unicode="note&#x2d;outline" 
d="M299 235h117l-117 117v-117zM107 384h213l128 -128v-213q0 -18 -12.5 -30.5t-30.5 -12.5h-298q-19 0 -31 12.5t-12 30.5v298q0 19 12 31t31 12zM107 341v-298h298v149h-149v149h-149z" />
    <glyph glyph-name="note-plus-outline" unicode="note&#x2d;plus&#x2d;outline" 
d="M320 235h117l-117 117v-117zM85 384h256l128 -128v-213q0 -18 -12 -30.5t-30 -12.5h-342q-18 0 -30 12.5t-12 30.5v298q0 19 12 31t30 12zM85 341v-298h342v149h-150v149h-192zM171 85v43h-43v43h43v42h42v-42h43v-43h-43v-43h-42z" />
    <glyph glyph-name="note-plus" unicode="note&#x2d;plus" 
d="M299 235h117l-117 117v-117zM107 384h213l128 -128v-213q0 -18 -12.5 -30.5t-30.5 -12.5h-298q-19 0 -31 12.5t-12 30.5v298q0 19 12 31t31 12zM192 64h43v64h64v43h-64v64h-43v-64h-64v-43h64v-64z" />
    <glyph glyph-name="note-text" unicode="note&#x2d;text" 
d="M299 235h117l-117 117v-117zM107 384h213l128 -128v-213q0 -18 -12.5 -30.5t-30.5 -12.5h-298q-19 0 -31 12.5t-12 30.5v298q0 19 12 31t31 12zM107 192v-43h298v43h-298zM107 107v-43h192v43h-192z" />
    <glyph glyph-name="note" unicode="note" 
d="M299 235h117l-117 117v-117zM107 384h213l128 -128v-213q0 -18 -12.5 -30.5t-30.5 -12.5h-298q-18 0 -30.5 12.5t-12.5 30.5v298q0 19 12 31t31 12z" />
    <glyph glyph-name="numeric" unicode="numeric" 
d="M85 85v171h-42v43h85v-214h-43zM469 128q0 -18 -12 -30t-30 -13h-86v43h86v43h-43v42h43v43h-86v43h86q18 -1 30 -13t12 -30v-32q0 -14 -9 -23t-23 -9q14 0 23 -9t9 -23v-32zM299 128v-43h-128v86q0 18 12 30t30 12h43v43h-85v43h85q18 -1 30 -13t13 -30v-43
q-1 -18 -13 -30t-30 -12h-43v-43h86z" />
    <glyph glyph-name="open-in-app" unicode="open&#x2d;in&#x2d;app" 
d="M256 235l85 -86h-64v-128h-42v128h-64zM405 363q18 -1 30.5 -13t12.5 -30v-256q0 -18 -12.5 -30t-30.5 -13h-85v43h85v213h-298v-213h85v-43h-85q-18 1 -30.5 13t-12.5 30v256q0 18 12 30t31 13h298z" />
    <glyph glyph-name="open-in-new" unicode="open&#x2d;in&#x2d;new" 
d="M299 384h149v-149h-43v76l-209 -209l-30 30l209 209h-76v43zM405 43v149h43v-149q0 -18 -12.5 -30.5t-30.5 -12.5h-298q-18 0 -30.5 12.5t-12.5 30.5v298q0 18 12 30.5t31 12.5h149v-43h-149v-298h298z" />
    <glyph glyph-name="outbox" unicode="outbox" 
d="M299 149h-86v64h-42l85 86l85 -86h-42v-64zM107 128h85q1 -27 19 -45t45 -18t45 18t19 45h85v213h-298v-213zM405 384q18 0 30.5 -12.5t12.5 -30.5v-298q0 -18 -12.5 -30.5t-30.5 -12.5h-298q-18 0 -30.5 12.5t-12.5 30.5v298q0 18 12 30.5t31 12.5h298z" />
    <glyph glyph-name="package-down" unicode="package&#x2d;down" 
d="M109 341h294l-20 22h-256zM256 75l117 117h-74v43h-86v-43h-74zM438 336q10 -11 10 -27v-266q0 -18 -12.5 -30.5t-30.5 -12.5h-298q-18 0 -30.5 12.5t-12.5 30.5v266q0 16 10 27l29 36q10 12 25 12h256q15 0 25 -12z" />
    <glyph glyph-name="package-up" unicode="package&#x2d;up" 
d="M438 336q10 -11 10 -27v-266q0 -18 -12.5 -30.5t-30.5 -12.5h-298q-18 0 -30.5 12.5t-12.5 30.5v266q0 16 10 27l29 36q10 12 25 12h256q15 0 25 -12zM109 341h294l-20 22h-256zM256 245l-117 -117h74v-43h86v43h74z" />
    <glyph glyph-name="package-variant-closed" unicode="package&#x2d;variant&#x2d;closed" 
d="M448 96q-1 -13 -11 -19l-169 -94q-5 -4 -12 -4t-12 4l-169 94q-10 6 -11 19v192q1 13 11 19l169 94q5 4 12 4t12 -4l169 -94q10 -6 11 -19v-192zM256 359l-40 -22l125 -73l42 24zM129 288l127 -71l42 23l-126 73zM107 109l128 -73v144l-128 72v-143zM405 109v143
l-128 -72v-144z" />
    <glyph glyph-name="package-variant" unicode="package&#x2d;variant" 
d="M43 214q-8 5 -10.5 13t2.5 16l32 56q4 6 10 9l167 93q5 4 12 4t12 -4l169 -94q6 -4 9 -10l31 -54q4 -8 2 -16t-10 -13l-21 -12v-106q-1 -13 -11 -19l-169 -94q-5 -4 -12 -4t-12 4l-169 94q-10 6 -11 19v118q-10 -5 -21 0zM256 359v-142l127 71zM107 109l128 -73v144
l-128 72v-143zM405 109v68l-106 -62q-11 -5 -22 0v-79zM295 163l134 77l-12 22l-134 -77z" />
    <glyph glyph-name="package" unicode="package" 
d="M109 341h294l-20 22h-256zM438 336q10 -11 10 -27v-266q0 -18 -12.5 -30.5t-30.5 -12.5h-298q-18 0 -30.5 12.5t-12.5 30.5v266q0 16 10 27l29 36q10 12 25 12h256q15 0 25 -12zM128 64h128v64h-128v-64z" />
    <glyph glyph-name="palette" unicode="palette" 
d="M373 192q14 0 23 9t9 23t-9 23t-22.5 9t-22.5 -9t-9 -23t9 -23t22 -9zM309 277q14 1 23 10t9 22.5t-9 22.5t-22.5 9t-22.5 -9t-9 -22.5t9 -22.5t22 -10zM203 277q13 1 22 10t9 22.5t-9 22.5t-22.5 9t-22.5 -9t-9 -22.5t9 -22.5t23 -10zM139 192q13 0 22 9t9 23t-9 23
t-22.5 9t-22.5 -9t-9 -23t9 -23t23 -9zM256 384q82 -2 136 -50t56 -121q-1 -45 -31 -75t-76 -31h-37q-14 -1 -23 -10t-9 -22t8 -21.5t8 -22t-9 -22.5t-23 -9q-82 2 -136 56t-56 136q2 82 56 136t136 56z" />
    <glyph glyph-name="panorama" unicode="panorama" 
d="M181 181l-74 -96h298l-96 128l-74 -96zM491 64q-1 -18 -13 -30t-30 -13h-384q-18 1 -30 13t-13 30v256q1 18 13 30t30 13h384q18 -1 30 -13t13 -30v-256z" />
    <glyph glyph-name="paperclip" unicode="paperclip" 
d="M352 320h32v-245q-1 -50 -34 -83t-83 -35q-50 2 -83 35t-35 83v266q1 37 25 61t60.5 24t60.5 -24t25 -61v-224q-1 -22 -16 -37t-37.5 -15t-37.5 15t-16 37v203h32v-203q1 -9 7 -15t15 -6t15 6t6 15v224q-1 23 -16 38t-37.5 15t-37.5 -15t-16 -38v-266q1 -37 25 -61
t60.5 -24t60.5 24t25 61v245z" />
    <glyph glyph-name="pause" unicode="pause" 
d="M299 40v298h85v-298h-85zM128 40v298h85v-298h-85z" />
    <glyph glyph-name="pen" unicode="pen" 
d="M442 298q-6 -6 -10 -11t-4.5 -10.5t3.5 -10.5t10 -10q8 -8 14 -15.5t5.5 -15.5t-7 -16t-15.5 -16l-88 -88l-30 30l91 91l-21 20l-30 -30l-80 80l82 82q6 6 15 6t15 -6l50 -50q6 -6 6 -15t-6 -15zM64 80l204 204l80 -80l-204 -204h-80v80z" />
    <glyph glyph-name="pencil-box" unicode="pencil&#x2d;box" 
d="M405 384q18 0 30.5 -12.5t12.5 -30.5v-298q0 -19 -12.5 -31t-30.5 -12h-298q-18 0 -30.5 12.5t-12.5 30.5v298q0 18 12.5 30.5t30.5 12.5h298zM356 249q7 8 0 16l-27 27q-8 7 -16 0l-22 -21l44 -44zM149 129v-44h44l130 130l-44 44z" />
    <glyph glyph-name="pin-off" unicode="pin&#x2d;off" 
d="M43 336l27 27l357 -357l-27 -27l-127 126v-126h-34v128h-111v42l43 43v16zM341 192l43 -43v-42h-4l-209 209v47h-22v42h214v-42h-22v-171z" />
    <glyph glyph-name="pin" unicode="pin" 
d="M341 192l43 -43v-42h-111v-128h-34v128h-111v42l43 43v171h-22v42h214v-42h-22v-171z" />
    <glyph glyph-name="play" unicode="play" 
d="M171 338l234 -149l-234 -149v298z" />
    <glyph glyph-name="playlist-minus" unicode="playlist&#x2d;minus" 
d="M43 107v42h170v-42h-170zM256 149h213v-42h-213v42zM299 320v-43h-256v43h256zM299 235v-43h-256v43h256z" />
    <glyph glyph-name="playlist-play" unicode="playlist&#x2d;play" 
d="M64 363l107 -86l-107 -85v171zM213 299h192v-43h-192v43zM149 213h256v-42h-256v42zM149 128h256v-43h-256v43z" />
    <glyph glyph-name="playlist-plus" unicode="playlist&#x2d;plus" 
d="M43 107v42h170v-42h-170zM384 149h85v-42h-85v-86h-43v86h-85v42h85v86h43v-86zM299 320v-43h-256v43h256zM299 235v-43h-256v43h256z" />
    <glyph glyph-name="playlist-remove" unicode="playlist&#x2d;remove" 
d="M43 320h256v-43h-256v43zM43 235h170v-43h-170v43zM302 218l61 -60l60 60l30 -30l-60 -60l60 -60l-30 -30l-60 60l-61 -60l-30 30l61 60l-61 60zM43 149h170v-42h-170v42z" />
    <glyph glyph-name="plus-box" unicode="plus&#x2d;box" 
d="M363 171v42h-86v86h-42v-86h-86v-42h86v-86h42v86h86zM405 384q18 0 30.5 -12t12.5 -31v-298q0 -18 -12.5 -30.5t-30.5 -12.5h-298q-18 0 -30.5 12.5t-12.5 30.5v298q0 19 12 31t31 12h298z" />
    <glyph glyph-name="plus-circle-outline" unicode="plus&#x2d;circle&#x2d;outline" 
d="M256 21q72 2 120.5 50.5t50.5 120.5q-2 72 -50.5 120.5t-120.5 50.5q-72 -2 -120.5 -50.5t-50.5 -120.5q2 -72 50.5 -120.5t120.5 -50.5zM256 405q91 -2 151 -62t62 -151q-2 -91 -62 -151t-151 -62q-91 2 -151 62t-62 151q2 91 62 151t151 62zM277 299v-86h86v-42h-86
v-86h-42v86h-86v42h86v86h42z" />
    <glyph glyph-name="plus-circle" unicode="plus&#x2d;circle" 
d="M363 171v42h-86v86h-42v-86h-86v-42h86v-86h42v86h86zM256 405q91 -2 151 -62t62 -151q-2 -91 -62 -151t-151 -62q-91 2 -151 62t-62 151q2 91 62 151t151 62z" />
    <glyph glyph-name="plus" unicode="plus" 
d="M405 171h-128v-128h-42v128h-128v42h128v128h42v-128h128v-42z" />
    <glyph glyph-name="poll-box" unicode="poll&#x2d;box" 
d="M363 85v86h-43v-86h43zM277 85v214h-42v-214h42zM192 85v150h-43v-150h43zM405 384q18 0 30.5 -12t12.5 -31v-298q0 -18 -12.5 -30.5t-30.5 -12.5h-298q-18 0 -30.5 12.5t-12.5 30.5v298q0 19 12 31t31 12h298z" />
    <glyph glyph-name="poll" unicode="poll" 
d="M64 -21v298h85v-298h-85zM213 -21v426h86v-426h-86zM363 -21v170h85v-170h-85z" />
    <glyph glyph-name="power" unicode="power" 
d="M353 332q34 -24 53.5 -60t20.5 -80q-2 -73 -50 -121t-121 -50q-73 2 -121 50t-50 121q1 44 20.5 80t53.5 60l30 -31q-27 -17 -44 -45.5t-17 -63.5q1 -54 37.5 -90.5t90.5 -37.5q54 1 90.5 37.5t37.5 90.5q0 35 -17 63.5t-45 45.5zM277 384v-213h-42v213h42z" />
    <glyph glyph-name="presentation-play" unicode="presentation&#x2d;play" 
d="M43 384h170q1 18 13 30t30 12t30 -12t13 -30h170v-43h-21v-234h-123l38 -128h-43l-37 128h-54l-37 -128h-43l38 128h-123v234h-21v43zM107 341v-192h298v192h-298zM253 195q-3 -3 -8 -3q-9 1 -10 11v85q1 10 10 11q5 0 8 -4l30 -29q5 -5 9 -10.5t4 -10.5t-4 -10t-9 -10z
" />
    <glyph glyph-name="presentation" unicode="presentation" 
d="M43 384h170q1 18 13 30t30 12t30 -12t13 -30h170v-43h-21v-234h-123l38 -128h-43l-37 128h-54l-37 -128h-43l38 128h-123v234h-21v43zM107 341v-192h298v192h-298z" />
    <glyph glyph-name="printer-alert" unicode="printer&#x2d;alert" 
d="M299 363v-86h-171v86h171zM320 171q9 0 15 6t6 15t-6 15t-15 6t-15 -6t-6 -15t6 -15t15 -6zM277 43v85h-128v-85h128zM320 256q27 -1 45 -19t19 -45v-107h-64v-85h-213v85h-64v107q0 27 18 45t46 19h213zM469 299v-107h-42v107h42zM469 149v-42h-42v42h42z" />
    </font>
</defs>
</svg>
