<?xml version="1.0" standalone="no"?>
<!DOCTYPE svg PUBLIC "-//W3C//DTD SVG 1.1//EN" "http://www.w3.org/Graphics/SVG/1.1/DTD/svg11.dtd">
<svg width="100%" height="100%" viewBox="0 0 24 24" version="1.1" xmlns="http://www.w3.org/2000/svg" xmlns:xlink="http://www.w3.org/1999/xlink" xml:space="preserve" style="fill-rule:evenodd;clip-rule:evenodd;stroke-linejoin:round;stroke-miterlimit:1.41421;">
    <path d="M15.1818,13.0909L16.8182,13.0909L16.8182,16.1673L19.48,17.7055L18.6618,19.1236L15.1818,17.1164L15.1818,13.0909M19.5455,7.63636L4.27273,7.63636L4.27273,19.6364L9.36727,19.6364C8.89818,18.6436 8.63636,17.5309 8.63636,16.3636C8.63636,12.1745 12.0835,8.72727 16.2727,8.72727C17.44,8.72727 18.5527,8.98909 19.5455,9.45818L19.5455,7.63636M4.27273,21.8182C3.06182,21.8182 2.09091,20.8364 2.09091,19.6364L2.09091,4.36364C2.09091,3.15273 3.06182,2.18182 4.27273,2.18182L5.36364,2.18182L5.36364,0L7.54545,0L7.54545,2.18182L16.2727,2.18182L16.2727,0L18.4545,0L18.4545,2.18182L19.5455,2.18182C20.7424,2.18182 21.7273,3.16673 21.7273,4.36364L21.7273,11.0182C23.08,12.3927 23.9091,14.28 23.9091,16.3636C23.9091,20.5528 20.4619,24 16.2727,24C14.1891,24 12.3018,23.1709 10.9273,21.8182L4.27273,21.8182M16.2727,11.0727C13.3702,11.0727 10.9818,13.4611 10.9818,16.3636C10.9818,19.2873 13.3491,21.6545 16.2727,21.6545C19.1752,21.6545 21.5636,19.2661 21.5636,16.3636C21.5636,13.44 19.1964,11.0727 16.2727,11.0727Z" style="fill:rgb(120,120,120);fill-rule:nonzero;"/>
</svg>
