<?xml version="1.0" standalone="no"?>
<!DOCTYPE svg PUBLIC "-//W3C//DTD SVG 1.1//EN" "http://www.w3.org/Graphics/SVG/1.1/DTD/svg11.dtd">
<svg width="100%" height="100%" viewBox="0 0 612 612" version="1.1" xmlns="http://www.w3.org/2000/svg" xmlns:xlink="http://www.w3.org/1999/xlink" xml:space="preserve" style="fill-rule:evenodd;clip-rule:evenodd;stroke-linejoin:round;stroke-miterlimit:1.41421;">
    <g>
        <path d="M587.572,186.881C555.306,111.656 500.476,56.947 424.623,24.596C386.711,8.427 346.992,0.168 305.497,0.168C264.009,0.168 224.583,8.349 186.713,24.596C111.488,56.861 56.415,111.535 24.092,186.881C7.895,224.629 0,264.176 0,305.664C0,347.16 7.895,387.035 24.092,424.791C56.415,500.137 111.495,555.139 186.713,587.412C224.59,603.659 264.008,611.832 305.497,611.832C346.986,611.832 386.711,603.573 424.617,587.412C500.47,555.06 555.3,500.009 587.573,424.791C603.819,386.914 612,347.16 612,305.664C612,264.176 603.826,224.757 587.572,186.881ZM538.724,440.853C514.703,482.048 481.795,514.729 440.349,538.892C399.154,562.913 354.017,575.027 305.504,575.027C269.034,575.027 234.234,568.003 201.104,553.612C167.975,539.228 139.371,520.318 115.443,496.397C91.515,472.469 72.47,443.586 58.229,410.4C44.03,377.335 37.149,342.142 37.149,305.665C37.149,257.145 49.07,212.237 72.956,171.156C96.927,129.925 129.842,97.209 170.995,73.116C212.141,49.024 256.985,36.974 305.497,36.974C354.017,36.974 399.146,49.095 440.342,73.116C481.788,97.28 514.625,129.995 538.717,171.155C562.809,212.308 574.852,257.145 574.852,305.664C574.852,354.185 562.888,399.399 538.724,440.853Z" style="fill:rgb(120,120,120);fill-rule:nonzero;"/>
        <path d="M324.906,302.988L324.906,129.659C324.906,119.287 315.869,110.921 305.496,110.921C295.795,110.921 287.093,119.287 287.093,129.659L287.093,305.664C287.093,306 287.764,307.342 287.764,308.342C287.093,314.366 288.771,319.385 292.783,323.404L392.836,423.45C399.531,430.145 411.909,430.145 418.599,423.45C426.293,415.755 425.787,404.59 418.599,397.351L324.906,302.988Z" style="fill:rgb(120,120,120);fill-rule:nonzero;"/>
    </g>
</svg>
