<?xml version="1.0" standalone="no"?>
<!DOCTYPE svg PUBLIC "-//W3C//DTD SVG 1.1//EN" "http://www.w3.org/Graphics/SVG/1.1/DTD/svg11.dtd">
<svg width="100%" height="100%" viewBox="0 0 24 24" version="1.1" xmlns="http://www.w3.org/2000/svg" xmlns:xlink="http://www.w3.org/1999/xlink" xml:space="preserve" style="fill-rule:evenodd;clip-rule:evenodd;stroke-linejoin:round;stroke-miterlimit:1.41421;">
    <path d="M12,-4.44089e-16C18.636,-4.44089e-16 24,5.364 24,12C24,18.636 18.636,24 12,24C5.364,24 -4.44089e-16,18.636 -4.44089e-16,12C-4.44089e-16,5.364 5.364,-4.44089e-16 12,-4.44089e-16M16.308,6L12,10.308L7.692,6L6,7.692L10.308,12L6,16.308L7.692,18L12,13.692L16.308,18L18,16.308L13.692,12L18,7.692L16.308,6Z" style="fill:rgb(51,51,51);fill-rule:nonzero;"/>
</svg>
