<?xml version="1.0" standalone="no"?>
<!DOCTYPE svg PUBLIC "-//W3C//DTD SVG 1.1//EN" "http://www.w3.org/Graphics/SVG/1.1/DTD/svg11.dtd">
<svg width="100%" height="100%" viewBox="0 0 765 496" version="1.1" xmlns="http://www.w3.org/2000/svg" xmlns:xlink="http://www.w3.org/1999/xlink" xml:space="preserve" style="fill-rule:evenodd;clip-rule:evenodd;stroke-linecap:round;stroke-miterlimit:1.41421;">
    <g>
        <g id="scheme">
            <g id="field">
                <rect x="0.413403" y="1.09572" width="382.865" height="493.762" style="fill:white;"/>
                <rect x="-0.583313" y="0.095236" width="2.19582" height="494.487" style="fill:rgb(142,140,140);"/>
                <rect x="118.319" y="99.2823" width="2.12482" height="297.478" style="fill:rgb(142,140,140);"/>
                <rect x="380.427" y="0.095625" width="1.85415" height="495.858" style="fill:rgb(142,140,140);"/>
                <rect x="-0.583313" y="493.756" width="382.865" height="2.19775" style="fill:rgb(142,140,140);"/>
                <rect x="-0.583313" y="0.0957385" width="382.865" height="2.15145" style="fill:rgb(142,140,140);"/>
                <path d="M88.2586,248.037C88.2586,247.15 88.9774,246.431 89.8648,246.431C90.7522,246.431 91.471,247.15 91.471,248.037C91.471,248.925 90.7522,249.644 89.8648,249.644C88.9774,249.644 88.2586,248.925 88.2586,248.037Z" style="fill:rgb(142,140,140);"/>
                <rect x="38.8604" y="180.158" width="2.13138" height="135.651" style="fill:rgb(142,140,140);"/>
                <rect x="-0.583313" y="99.2069" width="121.028" height="2.19451" style="fill:rgb(142,140,140);"/>
                <rect x="-0.583313" y="394.577" width="121.028" height="2.18317" style="fill:rgb(142,140,140);"/>
                <rect x="-0.583313" y="180.159" width="41.5751" height="2.1937" style="fill:rgb(142,140,140);"/>
                <rect x="-0.583313" y="313.617" width="41.5751" height="2.19208" style="fill:rgb(142,140,140);"/>
                <path d="M8.36816,495.953C8.78818,495.121 9.02287,494.192 9.02287,493.212C9.02287,489.639 5.90454,486.743 2.05782,486.743C1.49134,486.743 0.940658,486.806 0.413403,486.924L0.413403,495.953L8.36816,495.953Z" style="fill:none;stroke-width:2.03px;stroke:rgb(142,140,140);"/>
                <path d="M8.36816,1.09564C8.78818,1.9279 9.02287,2.8574 9.02287,3.83716C9.02287,7.41013 5.90454,10.3056 2.05782,10.3056C1.49134,10.3056 0.940658,10.2432 0.413403,10.1249L0.413403,1.09564L8.36816,1.09564Z" style="fill:none;stroke-width:2.03px;stroke:rgb(142,140,140);"/>
                <path d="M381.354,183.474L381.354,311.927C381.05,311.931 380.746,311.934 380.44,311.934C344.966,311.934 316.208,283.176 316.208,247.7C316.208,212.226 344.966,183.468 380.44,183.468C380.746,183.468 381.05,183.47 381.354,183.474Z" style="fill:none;stroke-width:2.03px;stroke:rgb(142,140,140);"/>
            </g>
            <path d="M119.382,191.432C140.745,201.686 155.449,223.154 155.449,247.977C155.449,272.799 140.745,294.267 119.382,304.521L119.382,191.432Z" style="fill:none;stroke-width:2.03px;stroke:rgb(142,140,140);"/>
        </g>
        <g id="scheme1">
            <g id="field1">
                <rect x="382.135" y="1.09572" width="382.865" height="493.762" style="fill:white;"/>
                <rect x="762.18" y="0.095236" width="2.19613" height="494.487" style="fill:rgb(142,140,140);"/>
                <rect x="643.349" y="99.2823" width="2.12482" height="297.478" style="fill:rgb(142,140,140);"/>
                <rect x="380.427" y="0.095625" width="1.85415" height="495.858" style="fill:rgb(142,140,140);"/>
                <rect x="381.511" y="493.756" width="382.865" height="2.19775" style="fill:rgb(142,140,140);"/>
                <rect x="381.511" y="0.0957385" width="382.865" height="2.15145" style="fill:rgb(142,140,140);"/>
                <path d="M675.534,248.037C675.534,247.15 674.815,246.431 673.928,246.431C673.041,246.431 672.322,247.15 672.322,248.037C672.322,248.925 673.041,249.644 673.928,249.644C674.815,249.644 675.534,248.925 675.534,248.037Z" style="fill:rgb(142,140,140);"/>
                <rect x="722.801" y="180.158" width="2.1313" height="135.651" style="fill:rgb(142,140,140);"/>
                <rect x="643.348" y="99.2069" width="121.028" height="2.19451" style="fill:rgb(142,140,140);"/>
                <rect x="643.348" y="394.577" width="121.028" height="2.18317" style="fill:rgb(142,140,140);"/>
                <rect x="722.801" y="180.159" width="41.575" height="2.1937" style="fill:rgb(142,140,140);"/>
                <rect x="722.801" y="313.617" width="41.575" height="2.19208" style="fill:rgb(142,140,140);"/>
                <path d="M755.425,495.953C755.005,495.121 754.77,494.192 754.77,493.212C754.77,489.639 757.888,486.743 761.735,486.743C762.301,486.743 762.852,486.806 763.379,486.924L763.379,495.953L755.425,495.953Z" style="fill:none;stroke-width:2.03px;stroke:rgb(142,140,140);"/>
                <path d="M755.425,1.09564C755.005,1.9279 754.77,2.8574 754.77,3.83716C754.77,7.41013 757.888,10.3056 761.735,10.3056C762.301,10.3056 762.852,10.2432 763.379,10.1249L763.379,1.09564L755.425,1.09564Z" style="fill:none;stroke-width:2.03px;stroke:rgb(142,140,140);"/>
                <path d="M381.354,183.474L381.354,311.927C381.658,311.931 381.963,311.934 382.268,311.934C417.743,311.934 446.501,283.176 446.501,247.7C446.501,212.226 417.743,183.468 382.268,183.468C381.963,183.468 381.658,183.47 381.354,183.474Z" style="fill:none;stroke-width:2.03px;stroke:rgb(142,140,140);"/>
            </g>
            <path d="M644.41,191.432C623.048,201.686 608.344,223.154 608.344,247.977C608.344,272.799 623.048,294.267 644.41,304.521L644.41,191.432Z" style="fill:none;stroke-width:2.03px;stroke:rgb(142,140,140);"/>
        </g>
    </g>
</svg>
