<svg xmlns="http://www.w3.org/2000/svg" viewBox="-63.7 117.7 808.5 510.9"><path fill="#FFF" stroke="#000" stroke-miterlimit="10" d="M-15 118.2v206.1l-48 48.8 47.9 49v206h759.3V118.2H-15z"/><path fill="#FFF" d="M-2.6 136.8h366.5v472.6H-2.6V136.8z"/><path fill="#8E8C8C" d="M-3.5 136h2.1v473.3h-2.1V136zm113.8 94.9h2v284.8h-2V230.9zM361.2 136h1.7v474.6h-1.7V136z"/><path fill="#8E8C8C" d="M-3.5 608.4H363v2.1H-3.5v-2.1zm0-472.4H363v2H-3.5v-2zm85 237.3c0-.8.7-1.6 1.6-1.6s1.6.7 1.6 1.6-.7 1.6-1.6 1.6c-.8-.1-1.6-.8-1.6-1.6zm-47.2-64.9h2v129.9h-2V308.4zm-37.8-77.6h115.9v2.1H-3.5v-2.1zm0 282.7h115.9v2.1H-3.5v-2.1z"/><path fill="#8E8C8C" d="M-3.5 308.4h39.8v2.1H-3.5v-2.1zm0 127.5h39.8v2.1H-3.5v-2.1z"/><path fill="none" stroke="#8E8C8C" stroke-width="2.03" stroke-linecap="round" stroke-miterlimit="1.414" d="M5.1 610.5c.4-.8.6-1.6.6-2.7 0-3.4-3-6.2-6.7-6.2-.5 0-1.1.1-1.6.2v8.6l7.7.1zm0-473.6c.4.8.6 1.6.6 2.7 0 3.4-3 6.2-6.7 6.2-.5 0-1.1-.1-1.6-.2V137c.1 0 7.7-.1 7.7-.1zm357 174.5v122.9h-.9c-34 0-61.5-27.6-61.5-61.5s27.6-61.5 61.5-61.5h.9zm-250.8 7.7c20.4 9.8 34.5 30.4 34.5 54.1 0 23.8-14.1 44.3-34.5 54.1V319.1z"/><path fill="#FFF" d="M362.8 136.9h366.5v472.6H362.8V136.9z"/><path fill="#8E8C8C" d="M726.6 136h2.1v473.3h-2.1V136zm-113.7 94.9h2v284.8h-2V230.9zM361.2 136h1.7v474.6h-1.7V136z"/><path fill="#8E8C8C" d="M362.3 608.4h366.5v2.1H362.3v-2.1zm0-472.4h366.5v2H362.3v-2zm281.4 237.3c0-.8-.7-1.6-1.6-1.6s-1.6.7-1.6 1.6.7 1.6 1.6 1.6c.9-.1 1.6-.8 1.6-1.6zm45.2-64.9h2v129.9h-2V308.4zm-76-77.6h115.9v2.1H612.9v-2.1zm0 282.7h115.9v2.1H612.9v-2.1z"/><path fill="#8E8C8C" d="M688.9 308.4h39.8v2.1h-39.8v-2.1zm0 127.5h39.8v2.1h-39.8v-2.1z"/><path fill="none" stroke="#8E8C8C" stroke-width="2.03" stroke-linecap="round" stroke-miterlimit="1.414" d="M720.1 610.5c-.4-.8-.6-1.6-.6-2.7 0-3.4 3-6.2 6.7-6.2.5 0 1.1.1 1.6.2v8.6l-7.7.1zm0-473.6c-.4.8-.6 1.6-.6 2.7 0 3.4 3 6.2 6.7 6.2.5 0 1.1-.1 1.6-.2V137c-.1 0-7.7-.1-7.7-.1zm-358 174.5v122.9h.9c34 0 61.5-27.6 61.5-61.5s-27.6-61.5-61.5-61.5h-.9zm251.8 7.7c-20.4 9.8-34.5 30.4-34.5 54.1 0 23.8 14.1 44.3 34.5 54.1V319.1z"/></svg>