<?xml version="1.0" standalone="no"?>
<!DOCTYPE svg PUBLIC "-//W3C//DTD SVG 1.1//EN" "http://www.w3.org/Graphics/SVG/1.1/DTD/svg11.dtd">
<svg width="100%" height="100%" viewBox="0 0 150 150" version="1.1" xmlns="http://www.w3.org/2000/svg" xmlns:xlink="http://www.w3.org/1999/xlink" xml:space="preserve" style="fill-rule:evenodd;clip-rule:evenodd;stroke-linejoin:round;stroke-miterlimit:1.41421;">
    <g id="Layer1">
        <path d="M27.9791,66.5207L9.42235,66.5207L9.42235,150L27.9791,150L27.9791,66.5207ZM84.2107,102.001L65.6075,102.001L65.6075,150L84.2107,150L84.2107,102.001ZM140.615,150L122.058,150L122.058,132.122L140.615,132.122L140.615,150ZM150,94.2202L112.673,94.2202L112.673,122.3L150,122.3L150,94.2202ZM93.5724,60.9861L56.2458,60.9861L56.2458,89.0663L93.5724,89.0663L93.5724,60.9861ZM140.615,85.1388L122.058,85.1388L122.058,0.0978721L140.615,0.0978721L140.615,85.1388ZM37.3267,29.1361L-2.84217e-14,29.1361L-2.84217e-14,57.2163L37.3267,57.2163L37.3267,29.1361ZM84.2107,0.0978721L65.6075,0.0978721L65.6075,48.0971L84.2107,48.0971L84.2107,0.0978721ZM27.9791,0.0978721L9.42235,0.0978721L9.42235,20.2939L27.9791,20.2939L27.9791,0.0978721Z" style="fill:white;"/>
    </g>
</svg>
