<?xml version="1.0" standalone="no"?>
<!DOCTYPE svg PUBLIC "-//W3C//DTD SVG 1.1//EN" "http://www.w3.org/Graphics/SVG/1.1/DTD/svg11.dtd">
<svg width="100%" height="100%" viewBox="0 0 535 109" version="1.1" xmlns="http://www.w3.org/2000/svg" xmlns:xlink="http://www.w3.org/1999/xlink" xml:space="preserve" style="fill-rule:evenodd;clip-rule:evenodd;stroke-linejoin:round;stroke-miterlimit:1.41421;">
    <g>
        <path d="M172.8,11L154.5,57.5L135.8,11L118.6,11L112,11L95.2,11L85.7,53.7L68.2,11L49.5,11L33.4,53.7L22.7,11L0,11L20.5,81.5L41.2,81.5L58.9,37L76.3,81.4L96.7,81.4L115.9,19.8L142.4,80.4C138.6,87.3 132.5,92.3 124.4,95.4L122.6,96L133.9,109.9L134.8,109.5C147.7,104.2 157.2,95.1 163,82.5L196.4,11L172.8,11Z" style="fill:black;fill-rule:nonzero;"/>
        <path d="M235,37.4L222.4,37.4C215.3,37.4 214.5,34.5 214.5,32.3C214.5,28.5 219.4,26.6 229.1,26.6C239,26.6 248.4,28.1 256.8,31.1L258.6,31.7L258.6,14.5L257.6,14.2C248.9,11.6 239.4,10.3 229.5,10.3C205.6,10.3 193.5,17.9 193.5,33C193.5,47.6 201.9,55 218.6,55L232.7,55C239.1,55 239.9,57.8 239.9,60.1C239.9,61.5 239.9,65.8 228.6,65.8C217.5,65.8 207.6,64.3 199.1,61.4L197.3,60.8L197.3,77.9L198.2,78.2C206.9,80.8 216.9,82.1 227.8,82.1C250.6,82.1 262.2,74.5 262.2,59.4C262.3,44.8 253.1,37.4 235,37.4Z" style="fill:black;fill-rule:nonzero;"/>
        <path d="M308,11C278.5,11 263.6,22.4 263.6,44.9C263.6,69.1 278.5,81.4 308,81.4C316,81.4 323.3,80.7 329.8,79.4L330.9,79.2L330.9,62.9L329.3,63.2C323,64.5 316.3,65.1 309.5,65.1C293.7,65.1 286,58.5 286,44.8C286,32.9 293.7,27.1 309.5,27.1C316.3,27.1 323,27.8 329.3,29L330.9,29.3L330.9,13.1L329.8,12.9C323.3,11.6 316,11 308,11Z" style="fill:black;fill-rule:nonzero;"/>
        <path d="M372.5,10.3C345.5,10.3 331.8,22.4 331.8,46.2C331.9,70 345.6,82 372.5,82C399.5,82 413.2,70 413.2,46.2C413.1,22.4 399.5,10.3 372.5,10.3ZM372.5,65.8C360.2,65.8 354.2,59.3 354.2,45.9C354.2,32.8 360.2,26.5 372.5,26.5C384.8,26.5 390.8,32.8 390.8,45.9C390.8,59.3 384.8,65.8 372.5,65.8Z" style="fill:black;fill-rule:nonzero;"/>
        <path d="M470,57C463.3,62.2 456.7,64.9 450.3,64.9C442.5,64.9 438.9,61.8 438.9,55.1L438.9,11L416.5,11L416.5,54.9C416.5,72.6 426,81.5 444.7,81.5C453.9,81.5 463.2,78.8 472.3,73.6L474.5,81.5L492.2,81.5L492.2,11L470,11L470,57Z" style="fill:black;fill-rule:nonzero;"/>
        <path d="M514.5,0L497.5,0L497.5,61.8C497.5,74.8 504.6,81.4 518.5,81.4L535.9,81.4L535.9,65.2L528,65.2C522.5,65.2 519.9,62.7 519.9,57.1L519.9,27.2L535.9,27.2L535.9,11L517.5,11L514.5,0Z" style="fill:black;fill-rule:nonzero;"/>
    </g>
</svg>
