<?xml version="1.0" standalone="no"?>
<!DOCTYPE svg PUBLIC "-//W3C//DTD SVG 1.1//EN" "http://www.w3.org/Graphics/SVG/1.1/DTD/svg11.dtd">
<svg width="100%" height="100%" viewBox="0 0 24 24" version="1.1" xmlns="http://www.w3.org/2000/svg" xmlns:xlink="http://www.w3.org/1999/xlink" xml:space="preserve" style="fill-rule:evenodd;clip-rule:evenodd;stroke-linejoin:round;stroke-miterlimit:1.41421;">
    <path d="M18,12C18,10.3542 19.3542,9 21,9C22.6458,9 24,10.3542 24,12C24,13.6458 22.6458,15 21,15C19.3542,15 18,13.6458 18,12M9,12C9,10.3542 10.3542,9 12,9C13.6458,9 15,10.3542 15,12C15,13.6458 13.6458,15 12,15C10.3542,15 9,13.6458 9,12M0,12C0,10.3542 1.35425,9 3,9C4.64575,9 6,10.3542 6,12C6,13.6458 4.64575,15 3,15C1.35425,15 0,13.6458 0,12Z" style="fill:white;fill-rule:nonzero;"/>
</svg>
