<?xml version="1.0" standalone="no"?>
<!DOCTYPE svg PUBLIC "-//W3C//DTD SVG 1.1//EN" "http://www.w3.org/Graphics/SVG/1.1/DTD/svg11.dtd">
<svg width="100%" height="100%" viewBox="0 0 485 485" version="1.1" xmlns="http://www.w3.org/2000/svg" xmlns:xlink="http://www.w3.org/1999/xlink" xml:space="preserve" style="fill-rule:evenodd;clip-rule:evenodd;stroke-linejoin:round;stroke-miterlimit:1.41421;">
    <path d="M242.606,0.00208131C376.593,0.00208131 485.211,108.619 485.211,242.605C485.211,376.591 376.593,485.208 242.606,485.208C108.618,485.208 0,376.591 0,242.605C0,108.619 108.618,0.00208131 242.606,0.00208131ZM413.474,400.144C451.678,358.729 475.016,303.392 475.016,242.605C475.016,114.25 370.962,10.1971 242.606,10.1971C114.249,10.1971 10.1951,114.25 10.1951,242.605C10.1951,303.174 33.3652,358.331 71.3257,399.697C71.5132,399.092 72.1845,398.026 73.8249,395.889C98.7976,363.349 125.673,355.938 125.673,355.938L149.062,355.938C174.892,355.938 195.834,334.994 195.834,309.162L195.834,293.632C186.539,282.498 179.187,269.72 174.754,255.902C173.82,253.105 173.338,249.861 170.759,248.081C160.594,239.734 157.809,224.1 164.135,212.624C165.208,210.305 167.583,208.411 167.265,205.61C167.307,191.623 167.149,177.634 167.354,163.681C167.902,150.684 171.144,137.497 178.546,126.636C186.905,114.144 200.424,105.716 214.813,102.085C231.418,97.861 248.957,97.699 265.721,100.897C278.988,103.42 291.847,109.314 301.213,119.213C312.813,131.464 317.542,148.676 317.909,165.221C317.995,178.925 317.926,192.662 317.926,206.376C317.833,208.399 319.48,209.815 320.395,211.448C327.111,222.205 325.351,237.313 316.396,246.266C314.733,248.047 312.239,249.327 311.76,251.918C307.147,267.29 299.725,281.838 289.377,294.137L289.377,309.162C289.377,334.994 310.321,355.938 336.152,355.938L359.539,355.938C359.539,355.938 386.297,363.32 411.222,395.676C413.117,398.136 413.596,399.35 413.474,400.144Z" style="fill:rgb(39,170,225);"/>
</svg>
