<?xml version="1.0" standalone="no"?>
<!DOCTYPE svg PUBLIC "-//W3C//DTD SVG 1.1//EN" "http://www.w3.org/Graphics/SVG/1.1/DTD/svg11.dtd">
<svg width="100%" height="100%" viewBox="0 0 485 485" version="1.1" xmlns="http://www.w3.org/2000/svg" xmlns:xlink="http://www.w3.org/1999/xlink" xml:space="preserve" style="fill-rule:evenodd;clip-rule:evenodd;stroke-linejoin:round;stroke-miterlimit:1.41421;">
    <path d="M394.235,333.585L363.908,333.585C330.413,333.585 303.255,306.427 303.255,272.931L303.255,253.447C316.673,237.499 326.297,218.635 332.279,198.702C332.9,195.342 336.134,193.682 338.291,191.372C349.902,179.763 352.185,160.172 343.476,146.223C342.29,144.106 340.154,142.27 340.275,139.647C340.275,121.863 340.364,104.051 340.252,86.281C339.776,64.826 333.644,42.508 318.602,26.621C306.458,13.785 289.783,6.142 272.58,2.871C250.841,-1.276 228.098,-1.066 206.567,4.411C187.908,9.12 170.378,20.048 159.539,36.247C149.941,50.33 145.736,67.43 145.026,84.283C144.76,102.377 144.965,120.516 144.91,138.654C145.323,142.285 142.243,144.742 140.852,147.748C132.649,162.629 136.26,182.903 149.441,193.726C152.785,196.034 153.411,200.241 154.622,203.868C160.37,221.785 169.904,238.355 181.957,252.793L181.957,272.931C181.957,306.427 154.8,333.585 121.306,333.585L90.978,333.585C90.978,333.585 36.014,348.743 0,424.56L0,454.887C0,471.646 13.564,485.208 30.327,485.208L454.889,485.208C471.648,485.208 485.211,471.646 485.211,454.887L485.211,424.56C449.199,348.749 394.235,333.585 394.235,333.585Z" style="fill:rgb(120,120,120);fill-rule:nonzero;"/>
</svg>
