<?xml version="1.0" standalone="no"?>
<!DOCTYPE svg PUBLIC "-//W3C//DTD SVG 1.1//EN" "http://www.w3.org/Graphics/SVG/1.1/DTD/svg11.dtd">
<svg width="100%" height="100%" viewBox="0 0 24 24" version="1.1" xmlns="http://www.w3.org/2000/svg" xmlns:xlink="http://www.w3.org/1999/xlink" xml:space="preserve" style="fill-rule:evenodd;clip-rule:evenodd;stroke-linejoin:round;stroke-miterlimit:1.41421;">
    <path d="M14.6667,0.306667L14.6667,3.05333C18.52,4.2 21.3333,7.77333 21.3333,12C21.3333,16.2267 18.52,19.7867 14.6667,20.9333L14.6667,23.6933C20,22.48 24,17.7067 24,12C24,6.29333 20,1.52 14.6667,0.306667M18,12C18,9.64 16.6667,7.61333 14.6667,6.62667L14.6667,17.3333C16.6667,16.3867 18,14.3467 18,12M0,8L0,16L5.33333,16L12,22.6667L12,1.33333L5.33333,8L0,8Z" style="fill:black;fill-rule:nonzero;"/>
</svg>
