<?xml version="1.0" standalone="no"?>
<!DOCTYPE svg PUBLIC "-//W3C//DTD SVG 1.1//EN" "http://www.w3.org/Graphics/SVG/1.1/DTD/svg11.dtd">
<svg width="100%" height="100%" viewBox="0 0 30 30" version="1.1" xmlns="http://www.w3.org/2000/svg" xmlns:xlink="http://www.w3.org/1999/xlink" xml:space="preserve" style="fill-rule:evenodd;clip-rule:evenodd;stroke-linejoin:round;stroke-miterlimit:1.41421;">
    <g id="Layer1">
        <path d="M15,0C23.2843,0 30,6.71573 30,15C30,23.2843 23.2843,30 15,30C6.71573,30 0,23.2843 0,15C0,6.71573 6.71573,0 15,0ZM13.4294,21.2822L16.5706,21.2822L16.5706,18.1411L13.4294,18.1411L13.4294,21.2822ZM8.71779,21.2822L11.8589,21.2822L11.8589,18.1411L8.71779,18.1411L8.71779,21.2822ZM18.1411,21.2822L21.2822,21.2822L21.2822,18.1411L18.1411,18.1411L18.1411,21.2822ZM8.71779,16.5706L11.8589,16.5706L11.8589,13.4294L8.71779,13.4294L8.71779,16.5706ZM13.4294,16.5706L16.5706,16.5706L16.5706,13.4294L13.4294,13.4294L13.4294,16.5706ZM18.1411,16.5706L21.2822,16.5706L21.2822,13.4294L18.1411,13.4294L18.1411,16.5706ZM8.71779,11.8589L11.8589,11.8589L11.8589,8.71779L8.71779,8.71779L8.71779,11.8589ZM18.1411,11.8589L21.2822,11.8589L21.2822,8.71779L18.1411,8.71779L18.1411,11.8589ZM13.4294,11.8589L16.5706,11.8589L16.5706,8.71779L13.4294,8.71779L13.4294,11.8589Z" style="fill:rgb(244,244,244);"/>
    </g>
</svg>
