<?xml version="1.0" standalone="no"?>
<!DOCTYPE svg PUBLIC "-//W3C//DTD SVG 1.1//EN" "http://www.w3.org/Graphics/SVG/1.1/DTD/svg11.dtd">
<svg width="100%" height="100%" viewBox="0 0 30 30" version="1.1" xmlns="http://www.w3.org/2000/svg" xmlns:xlink="http://www.w3.org/1999/xlink" xml:space="preserve" style="fill-rule:evenodd;clip-rule:evenodd;stroke-linejoin:round;stroke-miterlimit:1.41421;">
    <g id="Layer1">
        <path d="M15,0C23.2843,0 30,6.71573 30,15C30,23.2843 23.2843,30 15,30C6.71573,30 0,23.2843 0,15C0,6.71573 6.71573,0 15,0ZM20.282,8.39749L9.71799,8.39749C8.99359,8.39749 8.39749,8.99359 8.39749,9.71799L8.39749,21.6025L11.0385,18.9615L20.282,18.9615C21.0064,18.9615 21.6025,18.3654 21.6025,17.641L21.6025,9.71799C21.6025,8.98511 21.0083,8.39749 20.282,8.39749ZM13.0192,14.3397L11.6987,14.3397L11.6987,13.0192L13.0192,13.0192L13.0192,14.3397ZM15.6603,14.3397L14.3397,14.3397L14.3397,13.0192L15.6603,13.0192L15.6603,14.3397ZM18.3013,14.3397L16.9808,14.3397L16.9808,13.0192L18.3013,13.0192L18.3013,14.3397Z" style="fill:rgb(244,244,244);"/>
    </g>
</svg>
