<?xml version="1.0" standalone="no"?>
<!DOCTYPE svg PUBLIC "-//W3C//DTD SVG 1.1//EN" "http://www.w3.org/Graphics/SVG/1.1/DTD/svg11.dtd">
<svg width="100%" height="100%" viewBox="0 0 30 30" version="1.1" xmlns="http://www.w3.org/2000/svg" xmlns:xlink="http://www.w3.org/1999/xlink" xml:space="preserve" style="fill-rule:evenodd;clip-rule:evenodd;stroke-linejoin:round;stroke-miterlimit:1.41421;">
    <g id="Layer1">
        <path d="M15,0C23.2843,0 30,6.71573 30,15C30,23.2843 23.2843,30 15,30C6.71573,30 0,23.2843 0,15C0,6.71573 6.71573,0 15,0ZM13.6507,9.60296L9.60296,9.60296C8.85412,9.60296 8.2537,10.2034 8.2537,10.9522L8.2537,19.0478C8.2537,19.788 8.86278,20.397 9.60296,20.397L20.397,20.397C21.1372,20.397 21.7463,19.788 21.7463,19.0478L21.7463,12.3015C21.7463,11.5526 21.1391,10.9522 20.397,10.9522L15,10.9522L13.6507,9.60296Z" style="fill:rgb(244,244,244);"/>
    </g>
</svg>
