<?xml version="1.0" standalone="no"?>
<!DOCTYPE svg PUBLIC "-//W3C//DTD SVG 1.1//EN" "http://www.w3.org/Graphics/SVG/1.1/DTD/svg11.dtd">
<svg width="100%" height="100%" viewBox="0 0 30 30" version="1.1" xmlns="http://www.w3.org/2000/svg" xmlns:xlink="http://www.w3.org/1999/xlink" xml:space="preserve" style="fill-rule:evenodd;clip-rule:evenodd;stroke-linejoin:round;stroke-miterlimit:1.41421;">
    <g id="Layer1">
        <path d="M15,0C23.2843,0 30,6.71573 30,15C30,23.2843 23.2843,30 15,30C6.71573,30 0,23.2843 0,15C0,6.71573 6.71573,0 15,0ZM14.4098,7.23811C14.5211,7.01328 14.7504,6.87074 15.0009,6.87074C15.2515,6.87074 15.4811,7.01328 15.592,7.23811L17.7122,11.5346C17.808,11.7289 17.9939,11.8637 18.2088,11.895L22.9502,12.5838C23.1989,12.6198 23.4046,12.7939 23.4822,13.0324C23.5597,13.2708 23.495,13.5331 23.3154,13.708L19.8848,17.0526C19.7294,17.2039 19.6585,17.4221 19.6949,17.6359L20.5046,22.3586C20.5465,22.6062 20.4454,22.856 20.2419,23.0037C20.0387,23.1506 19.7702,23.1701 19.5476,23.054L15.3066,20.824C15.1148,20.723 14.8852,20.723 14.6931,20.824L10.4521,23.0536C10.2302,23.1701 9.96089,23.151 9.75773,23.0037C9.55457,22.8564 9.45318,22.6062 9.49543,22.3586L10.3051,17.6359C10.3419,17.4221 10.2706,17.2039 10.1152,17.0526L6.68464,13.708C6.50499,13.5327 6.44033,13.2708 6.51785,13.0324C6.59536,12.7939 6.80146,12.6198 7.05017,12.5838L11.7923,11.895C12.0068,11.8637 12.1927,11.7289 12.2886,11.5342L14.4098,7.23811Z" style="fill:#F1F1F1;"/>
    </g>
</svg>
