<?xml version="1.0" standalone="no"?>
<!DOCTYPE svg PUBLIC "-//W3C//DTD SVG 1.1//EN" "http://www.w3.org/Graphics/SVG/1.1/DTD/svg11.dtd">
<svg width="100%" height="100%" viewBox="0 0 30 30" version="1.1" xmlns="http://www.w3.org/2000/svg" xmlns:xlink="http://www.w3.org/1999/xlink" xml:space="preserve" style="fill-rule:evenodd;clip-rule:evenodd;stroke-linejoin:round;stroke-miterlimit:1.41421;">
    <g id="Layer1">
        <path d="M15,0C23.2843,0 30,6.71573 30,15C30,23.2843 23.2843,30 15,30C6.71573,30 0,23.2843 0,15C0,6.71573 6.71573,0 15,0ZM12.9811,7.14889C16.1806,7.14889 18.8134,9.78167 18.8134,12.9811C18.8134,14.4257 18.284,15.7537 17.4137,16.7766L17.6559,17.0189L18.3648,17.0189L22.8511,21.5052L21.5052,22.8511L17.0189,18.3648L17.0189,17.6559L16.7766,17.4137C15.7537,18.284 14.4257,18.8134 12.9811,18.8134C9.78167,18.8134 7.14889,16.1806 7.14889,12.9811C7.14889,9.78167 9.78167,7.14889 12.9811,7.14889ZM12.9811,8.94343C10.738,8.94343 8.94343,10.738 8.94343,12.9811C8.94343,15.2243 10.738,17.0189 12.9811,17.0189C15.2243,17.0189 17.0189,15.2243 17.0189,12.9811C17.0189,10.738 15.2243,8.94343 12.9811,8.94343Z" style="fill:rgb(244,244,244);"/>
    </g>
</svg>
